<?xml version="1.0" encoding="utf-8"?>
<!-- Generator: Adobe Illustrator 23.0.6, SVG Export Plug-In . SVG Version: 6.00 Build 0)  -->
<svg version="1.1" id="Calque_1" xmlns="http://www.w3.org/2000/svg" xmlns:xlink="http://www.w3.org/1999/xlink" x="0px" y="0px"
	 viewBox="0 0 146.97 51.54" style="enable-background:new 0 0 146.97 51.54;" xml:space="preserve">
<style type="text/css">
	.st0{fill:#020203;}
	.st1{fill:#087DC0;}
	.st2{fill:#656668;}
	.st3{fill-rule:evenodd;clip-rule:evenodd;fill:#656668;}
	.st4{fill:#F29508;}
</style>
<path class="st0" d="M143.95,47.54c0-0.01-0.03-0.15-0.03-0.15l-0.12,0.07l-0.23,0.14c-0.02,0.01-0.25,0.19-0.25,0.19l-0.02,0
	l-0.02-0.01l-0.05,0.04c-0.01,0.01-0.01,0.03-0.02,0.04c-0.06,0.03-0.2,0.1-0.2,0.1l-0.25,0.12c-0.14,0.07-0.35,0.16-0.54,0.17
	c-0.17,0.01-0.32-0.09-0.41-0.27c-0.04-0.08-0.05-0.2-0.05-0.32c0-0.16,0.03-0.33,0.07-0.47c0.11-0.01,0.61-0.04,0.61-0.04
	l0.55-0.04c0,0,0.01,0,0.02-0.01c0,0.01,0.01,0.02,0.01,0.02l0.19-0.04l0.05-0.01c0.02-0.01,0.17-0.14,0.17-0.14
	c0.08-0.15,0.06-0.22-0.01-0.31c-0.01-0.01-0.08-0.1-0.08-0.1l-0.03,0c-0.22-0.03-0.43-0.01-0.64,0.02l-0.07,0.01
	c0,0-0.1,0.01-0.1,0.01s-0.32,0.02-0.48,0.04c0.12-0.32,0.24-0.64,0.39-0.93c0.09-0.01,0.44-0.05,0.44-0.05l0.29-0.04
	c0.27-0.04,0.49-0.03,0.65,0.03l0.07,0.03c0,0,0.05-0.11,0.05-0.11c0.07-0.04,0.11-0.09,0.11-0.14c0-0.02-0.01-0.05-0.02-0.07
	l0.01,0.04l-0.06-0.16c0,0-0.05-0.07-0.05-0.07l-0.02-0.03l-0.04-0.03c-0.41-0.1-0.84-0.05-1.24,0.02l-0.17,0.03
	c-0.34,0.05-0.7,0.11-1.03,0.11l-0.03,0l-0.05,0.04c0,0.01-0.06,0.04-0.06,0.04c-0.01,0.01-0.11,0.17-0.11,0.17l-0.02,0.03
	l0.02,0.01c0.05,0.22,0.24,0.25,0.34,0.26c0.01,0,0.19,0,0.19,0s0.05,0,0.09,0c-0.04,0.11-0.1,0.28-0.1,0.28
	c0,0.01-0.03,0.08-0.03,0.08l-0.09,0.31c0,0.02,0,0.04,0,0.06c0,0.14-0.05,0.15-0.13,0.17c0.02,0-0.08,0.01-0.08,0.01
	c-0.04,0-0.18,0.02-0.21,0.19c0,0.02,0,0.03,0,0.05c0,0.1,0.06,0.17,0.09,0.2c0.01,0.01,0.12,0.06,0.12,0.06s0.01,0,0.01,0
	c-0.03,0.13-0.05,0.27-0.05,0.42c0,0.24,0.04,0.48,0.12,0.66c0.17,0.41,0.54,0.51,0.85,0.54c0.27-0.02,0.46-0.08,0.59-0.17
	c0.06-0.04,0.09-0.06,0.13-0.06l0.03,0l0.2-0.12l0.43-0.29l0,0c0.15-0.13,0.31-0.29,0.38-0.52l0.02-0.09
	C144.03,47.56,143.99,47.55,143.95,47.54 M87.81,48.65l0.02-0.19l-0.01,0.03l-0.15-0.21l-0.06-0.06c-0.14-0.31-0.17-0.69-0.2-1.12
	c0.01-0.01,0.03-0.02,0.03-0.02c0.01,0,0.08-0.02,0.08-0.02c0.11-0.02,0.25-0.04,0.26-0.16l-0.02,0.04c0.02-0.03,0.08-0.11,0.04-0.2
	c-0.04-0.08-0.13-0.09-0.2-0.1l-0.04,0l0.06,0c-0.05-0.06-0.13-0.05-0.2-0.03c0,0-0.01,0-0.02,0c-0.01-0.09-0.02-0.22-0.02-0.22
	l-0.05-0.98c0-0.02-0.04-0.2-0.04-0.2l-0.11-0.37c-0.05-0.11-0.16-0.23-0.29-0.23c-0.05,0-0.14,0.01-0.2,0.12l-0.01,0.02L86.7,44.8
	c0,0.03-0.01,0.08,0.02,0.13c0.02,0.04,0.05,0.12,0.05,0.14c-0.02-0.01-0.04-0.01-0.04-0.01L86.7,45.1
	c-0.33,0.36-0.6,0.81-0.84,1.21l-0.51,0.78c0,0,0.01,0.04,0.02,0.05c-0.06,0.02-0.13,0.06-0.14,0.16c-0.4,0.49-0.63,0.9-0.71,1.26
	l0,0.02l0,0.02c0.03,0.17,0.18,0.29,0.33,0.27l0.04-0.01l0.32-0.53l0.3-0.51c0.46-0.34,0.84-0.45,1.35-0.58c0,0,0.05-0.01,0.1-0.02
	c0.01,0.12,0.03,0.31,0.03,0.31L87,47.69c0,0.02,0.06,0.27,0.06,0.27c0.07,0.33,0.17,0.73,0.52,0.8l0,0c0.02,0,0.03,0.02,0.05,0.02
	l0.27,0.02c0,0-0.07-0.06-0.13-0.12C87.79,48.67,87.81,48.65,87.81,48.65 M86.13,46.89c0.18-0.28,0.55-0.85,0.73-1.13
	c0.01,0.19,0.02,0.4,0.02,0.4s0.02,0.39,0.02,0.51C86.65,46.72,86.39,46.8,86.13,46.89 M98.6,44.57c0-0.06,0-0.11,0-0.11
	s-0.16,0.17-0.18,0.19c-0.04-0.01-0.09-0.02-0.09-0.02c-0.08,0.23-0.32,0.31-0.54,0.36c0,0-0.2,0-0.2,0c-0.25,0-0.45,0.01-0.72-0.1
	l-0.02-0.01l-0.67,0l-0.46-0.01c-0.23-0.02-0.63,0.04-0.8,0.24l-0.04,0.05l0.02,0.03c0,0-0.01,0.01-0.01,0.01l-0.07,0.16l0.13,0.21
	l0.06-0.08c0.35-0.24,0.74-0.18,1.15-0.1c0,0,0.17,0.03,0.28,0.04c-0.23,0.78-0.41,1.52-0.41,2.24c0,0.32,0.04,0.63,0.12,0.95
	l0.01,0.04l0.05,0.03l0.02,0.01c0.06,0.03,0.19,0.1,0.3,0.02l0.04-0.03l0-0.04l-0.03-0.4l-0.02-0.44c0.07-0.93,0.25-1.69,0.52-2.35
	c0.08,0.01,0.18,0.03,0.18,0.03c0.19,0.04,0.33,0.06,0.56-0.02c0.18,0.05,0.44-0.03,0.58-0.1v0c0.18-0.09,0.3-0.31,0.3-0.52
	c0-0.05-0.01-0.11-0.02-0.15L98.6,44.57z M93.03,44.83l-0.05-0.03l-0.02-0.01l-0.02-0.01l-0.05-0.01c-0.03,0-0.05,0.01-0.07,0.03
	c-0.02-0.01-0.03-0.02-0.03-0.02h-0.08l-0.19,0.53c0,0-0.15,0.53-0.15,0.54c0,0-0.07,0.15-0.07,0.15c0,0-0.04,0.15-0.04,0.15
	c-0.01,0.06-0.03,0.11-0.07,0.18c-0.04-0.01-0.15-0.05-0.15-0.05l0.06,0.18c0.02,0.05,0.01,0.06-0.01,0.07c0,0-0.04,0.04-0.04,0.04
	c-0.01-0.01-0.02-0.03-0.02-0.03l-0.08,0.16l-0.03,0.05l-0.03,0.04c-0.02,0.04-0.04,0.08-0.04,0.14c0,0.01,0.01,0.02,0.01,0.03
	c-0.01,0-0.05-0.01-0.05-0.01l-0.01,0.08c0,0-0.01,0.01-0.01,0.02c-0.04-0.03-0.08-0.06-0.08-0.06l-0.03,0.16l0,0.03
	c-0.01,0.03-0.24,0.26-0.24,0.26c-0.02,0.02-0.13,0.16-0.13,0.16c-0.19,0.25-0.39,0.5-0.65,0.62c-0.05,0.04-0.09,0.05-0.13,0.04
	c-0.06-0.02-0.13-0.08-0.17-0.16c0-0.03,0-0.06,0-0.09c0-0.79,0.13-1.53,0.39-2.19c0.03-0.06,0.04-0.12,0.04-0.18
	c0-0.13-0.06-0.24-0.16-0.3l-0.02-0.01l-0.02,0c-0.17-0.01-0.36,0.1-0.38,0.34c0-0.01-0.15,0.72-0.15,0.72l-0.13,0.63
	c-0.09,0.56-0.07,0.99,0.07,1.4c0.12,0.28,0.37,0.35,0.55,0.41c0.37,0.05,0.61-0.2,0.8-0.37c0.19-0.18,0.34-0.4,0.48-0.59
	c0-0.01,0.13-0.2,0.13-0.2l0.06-0.09c0,0,0.02-0.02,0.04-0.05c-0.01,0.05-0.02,0.15-0.02,0.15l-0.04,0.41
	c0,0.01,0.01,0.12,0.01,0.12l0.01,0.09c0.01,0.19,0.04,0.46,0.25,0.57c0.13,0.03,0.26,0.02,0.29-0.17
	c-0.02-0.17-0.03-0.34-0.03-0.52c0-0.27,0.03-0.55,0.08-0.88c0,0,0.14-0.78,0.14-0.78l0.1-0.52c0,0,0.06-0.25,0.06-0.26
	c0,0,0.05-0.13,0.05-0.13c0.06-0.15,0.11-0.31,0.11-0.48c0-0.07-0.01-0.15-0.03-0.22L93.03,44.83z M114.66,44.83l-0.07-0.03
	c-0.03-0.01-0.08-0.03-0.08-0.03c-0.02,0-0.05,0.01-0.07,0.02c-0.01-0.01-0.03-0.02-0.03-0.02h-0.08l-0.19,0.53
	c0,0-0.15,0.53-0.15,0.54c0,0-0.07,0.15-0.07,0.15c0,0-0.04,0.15-0.04,0.15c-0.01,0.05-0.03,0.11-0.07,0.18
	c-0.04-0.01-0.15-0.04-0.15-0.04l0.06,0.18c0.01,0.02,0.01,0.03,0.01,0.04l0,0c0,0.02-0.01,0.02-0.02,0.03c0,0-0.04,0.04-0.04,0.04
	c-0.01-0.01-0.02-0.03-0.02-0.03l-0.08,0.16l-0.03,0.04l-0.03,0.04c-0.02,0.04-0.04,0.08-0.04,0.14c0,0.01,0.01,0.04,0.01,0.06
	c-0.02,0.01-0.05,0.01-0.07,0.05c0,0,0,0.01-0.01,0.01c-0.04-0.04-0.09-0.08-0.09-0.08l-0.03,0.19l0,0.03l-0.02,0.01l0.01,0.03
	l-0.23,0.22c-0.02,0.02-0.12,0.15-0.12,0.15c-0.2,0.25-0.4,0.51-0.66,0.63c-0.06,0.04-0.09,0.05-0.13,0.04
	c-0.07-0.02-0.13-0.08-0.17-0.16c0-0.03,0-0.06,0-0.09c0-0.79,0.13-1.52,0.39-2.19c0.03-0.06,0.04-0.12,0.04-0.18
	c0-0.13-0.06-0.24-0.17-0.3l-0.02-0.01l-0.02,0c-0.17-0.01-0.36,0.1-0.38,0.34c0-0.01-0.15,0.72-0.15,0.72l-0.14,0.63
	c-0.09,0.56-0.07,0.99,0.07,1.4c0.12,0.28,0.37,0.35,0.56,0.41c0.36,0.04,0.61-0.2,0.8-0.37c0.19-0.19,0.35-0.41,0.48-0.59
	c0,0,0.12-0.18,0.12-0.18l0.08-0.11c0,0,0.02-0.02,0.04-0.05c-0.01,0.05-0.02,0.15-0.02,0.15l-0.04,0.42c0,0.01,0.01,0.21,0.01,0.21
	c0.01,0.19,0.04,0.46,0.25,0.57c0.13,0.03,0.26,0.02,0.3-0.17c-0.02-0.17-0.03-0.34-0.03-0.51c0-0.27,0.02-0.56,0.07-0.88l0.14-0.76
	l0.1-0.54c0,0,0.06-0.25,0.06-0.25c0,0,0.05-0.13,0.05-0.13c0.06-0.15,0.11-0.31,0.11-0.48c0-0.07-0.01-0.15-0.03-0.22L114.66,44.83
	z M102.92,47.52l-0.03-0.12l-0.12,0.07l-0.23,0.13c-0.03,0.01-0.26,0.2-0.26,0.2c-0.05-0.01-0.08,0.01-0.1,0.04
	c-0.01,0.01-0.01,0.02-0.01,0.04c-0.07,0.03-0.43,0.22-0.43,0.22c-0.22,0.11-0.4,0.16-0.54,0.17c-0.17,0.01-0.32-0.09-0.41-0.27
	c-0.04-0.08-0.05-0.2-0.05-0.32c0-0.16,0.03-0.33,0.07-0.47c0.11-0.01,0.61-0.04,0.61-0.04l0.54-0.04c0,0,0.01,0,0.02-0.01
	c0,0.01,0.01,0.02,0.01,0.02l0.19-0.04l0.05-0.01c0.02-0.01,0.17-0.14,0.17-0.14c0.08-0.15,0.06-0.22-0.01-0.31
	c-0.01-0.01-0.08-0.1-0.08-0.1l-0.03,0c-0.22-0.03-0.43-0.01-0.64,0.02l-0.08,0.01c0,0-0.1,0.01-0.1,0.01s-0.32,0.03-0.48,0.04
	c0.11-0.31,0.24-0.64,0.39-0.93c0.09-0.01,0.44-0.05,0.44-0.05l0.29-0.04c0.27-0.04,0.49-0.03,0.65,0.03l0.07,0.03
	c0,0,0.04-0.1,0.05-0.11c0.04-0.02,0.11-0.06,0.11-0.14c0-0.02-0.01-0.05-0.02-0.07l0.01,0.04l-0.07-0.16c0,0-0.07-0.1-0.07-0.1
	l-0.04-0.03c-0.41-0.1-0.84-0.05-1.24,0.02l-0.18,0.03c-0.34,0.05-0.7,0.11-1.03,0.11l-0.03,0l-0.05,0.04
	c0,0.01-0.06,0.04-0.06,0.04c-0.01,0-0.11,0.16-0.11,0.16l-0.02,0.03l0.02,0.02c0.05,0.22,0.24,0.25,0.34,0.26c0.01,0,0.19,0,0.19,0
	s0.05,0,0.09,0c-0.04,0.11-0.1,0.29-0.1,0.29c0,0-0.03,0.08-0.03,0.08l-0.09,0.3c0,0.02,0,0.04,0,0.06c0,0.14-0.05,0.15-0.13,0.17
	c0.02,0-0.08,0.01-0.08,0.01c-0.04,0-0.18,0.02-0.21,0.19c0,0.02-0.01,0.03-0.01,0.05c0,0.09,0.05,0.16,0.09,0.2
	c0.01,0.01,0.12,0.06,0.12,0.06s0.01,0,0.01,0c-0.03,0.13-0.05,0.27-0.05,0.41c0,0.24,0.04,0.48,0.12,0.67
	c0.17,0.41,0.55,0.51,0.86,0.54c0.27-0.02,0.46-0.08,0.59-0.17c0.06-0.04,0.09-0.06,0.13-0.06l0.03,0l0.2-0.13l0.42-0.28l0,0
	c0.15-0.13,0.31-0.28,0.38-0.52l0.03-0.09c0,0-0.04-0.01-0.08-0.01C102.92,47.53,102.92,47.52,102.92,47.52 M132.94,44.96
	c-0.14-0.01-0.27,0.07-0.3,0.19c0,0-0.17,0.73-0.17,0.73c-0.19,0.77-0.41,1.63-0.35,2.45c0.07,0.25,0.23,0.38,0.48,0.41l0.05,0.01
	l0.07-0.08c0.04-0.05,0.1-0.11,0.1-0.2c0-0.01,0-0.02,0-0.04c0-0.02-0.14-0.18-0.14-0.18s-0.02-0.01-0.03-0.03c0-0.05,0-0.1,0-0.14
	c0-0.63,0.15-1.22,0.31-1.84l0.24-1.01C133.18,45.06,133.08,44.97,132.94,44.96 M139.06,44.96c0.02-0.05,0.04-0.1,0.04-0.1
	l-0.17,0.07L138.73,45c0,0,0.01,0.02,0.02,0.04c-0.01,0.01-0.04,0.04-0.04,0.04l-0.01,0.03c-0.01,0.03-0.01,0.05-0.01,0.08
	c0,0.06,0.03,0.11,0.06,0.17l0,0c-0.01,0-0.03-0.01-0.03-0.01s0,0.15-0.01,0.17c0,0.01-0.01,0.02-0.01,0.02l-0.04,0.18
	c-0.02,0.08-0.04,0.14-0.04,0.18c0,0.01,0.01,0.01,0.01,0.02c-0.04,0.14-0.16,0.55-0.16,0.55l-0.14,0.54c0,0.01-0.1,0.42-0.1,0.42
	l-0.03,0.13c0.01-0.03-0.04,0.18-0.04,0.18c-0.01,0.1-0.03,0.16-0.06,0.21c-0.39-0.34-0.67-0.73-0.97-1.15
	c-0.22-0.32-0.45-0.65-0.74-0.95c0.01-0.04,0.01-0.08,0.01-0.11c0-0.14-0.04-0.28-0.11-0.36c-0.09-0.08-0.16-0.08-0.2-0.07
	c-0.06,0.01-0.12,0.06-0.17,0.13c-0.01-0.01-0.02-0.02-0.02-0.02c-0.13-0.11-0.27-0.22-0.46-0.22c-0.03,0.01-0.22,0.16-0.22,0.16
	l-0.07,0.1l0.08,0.08l0.06,0.06l0.19,0.17l0.01-0.02c0.05,0,0.15,0.04,0.3,0.23c-0.22,0.81-0.44,1.75-0.46,2.68
	c0,0.01,0,0.02,0,0.02c0,0.05,0.06,0.09,0.09,0.11l0.04,0.03l0.02,0.06l0.07,0.02l0.11,0.01l0.1,0.01l0.06-0.05l0.04-0.04l0.02-0.05
	c0.01-0.83,0.22-1.65,0.41-2.31c0.14,0.19,0.5,0.66,0.5,0.66c0.36,0.52,0.74,1.06,1.26,1.39c0.2,0.09,0.29,0.05,0.38,0l0.13-0.06
	l0.02-0.04c0.17-0.42,0.23-0.87,0.28-1.3c0,0,0.07-0.5,0.07-0.51c0.01-0.02,0.02-0.04,0.02-0.06c0-0.01,0-0.02,0-0.03l0.08-0.06
	c0,0-0.04-0.03-0.06-0.04c0.01-0.01,0.02-0.02,0.02-0.02l0.01-0.1c0-0.01-0.01-0.01-0.01-0.01c0.03-0.1,0.19-0.68,0.19-0.68
	c0.04-0.12,0.06-0.22,0.06-0.31c0-0.14-0.05-0.25-0.15-0.33C139.09,44.99,139.07,44.96,139.06,44.96 M119.85,47.9l-0.02,0.01
	l-0.02,0.03c0,0-0.1,0.14-0.1,0.14h-0.02l-0.05,0.04c-0.02,0.02-0.06,0.06-0.07,0.05c-0.38-0.17-0.85-0.45-1.19-0.95
	c0.09-0.05,0.19-0.12,0.19-0.12c0,0,0.2-0.19,0.2-0.19c0.22-0.23,0.26-0.53,0.26-0.81c0-0.07,0-0.14-0.01-0.21
	c-0.2-0.71-0.77-0.88-1.36-0.97c0,0-0.17-0.02-0.17-0.02l-0.32-0.05c-0.02,0-0.09,0.01-0.09,0.01l-0.04,0.02c0,0-0.01,0-0.01,0
	c-0.01-0.01-0.01-0.02-0.02-0.03v0l0,0c-0.01-0.01-0.01-0.02-0.02-0.03l-0.09-0.04l-0.04,0.09c0,0-0.04,0.08-0.04,0.1
	c-0.01,0.02-0.04,0.03-0.04,0.05l-0.01,0.13c0,0,0.03,0,0.05-0.01l0,0.04l0.01,0.07c0.13,0.13,0.29,0.17,0.46,0.19
	c0,0,0.24,0.02,0.24,0.02c0,0,0.1,0.03,0.17,0.06c-0.03,0.4-0.11,0.81-0.28,1.28l-0.39,0.94l-0.09,0.2c0,0.01-0.11,0.23-0.11,0.23
	l-0.05,0.09c0,0-0.07,0.2-0.09,0.25c-0.08-0.02-0.18-0.04-0.18-0.04s0.08,0.08,0.14,0.14c-0.01,0.02-0.02,0.04-0.02,0.04
	s0.03,0,0.05-0.01c0.01,0.01,0.03,0.03,0.03,0.03l0.24,0.27c0,0-0.01-0.12-0.02-0.2l0,0c0.06,0.01,0.15,0,0.2-0.12
	c0.24-0.43,0.45-0.9,0.64-1.36c0.01,0.04,0.02,0.12,0.02,0.12l0.02,0l0.28,0.28c0,0,0.08,0.09,0.08,0.09l0.19,0.2
	c0.01,0.01,0.17,0.14,0.17,0.14c0.34,0.27,0.7,0.55,1.15,0.58l0.02,0l0.01-0.01c0.17-0.08,0.3-0.27,0.3-0.45V48.2l-0.01-0.02
	c0-0.01,0-0.01,0-0.01s0,0,0-0.01l0.04-0.07c0,0-0.01-0.01-0.02-0.02c0.01-0.01,0.02-0.04,0.02-0.04c0-0.01,0-0.03,0-0.04
	c0-0.06-0.03-0.09-0.05-0.1C119.97,47.88,119.92,47.86,119.85,47.9 M118.2,46.65c-0.01,0-0.12,0.09-0.12,0.09s-0.02,0.01-0.03,0.02
	c-0.03-0.01-0.05,0-0.08,0.01c0.09-0.33,0.18-0.72,0.21-1.11c0.17,0.05,0.32,0.16,0.38,0.33c0.01,0.03,0.01,0.06,0.01,0.09
	C118.56,46.28,118.44,46.46,118.2,46.65 M123.68,46.76C123.68,46.76,123.68,46.75,123.68,46.76l0.03-0.05l0.01-0.01
	c0.14-0.02,0.28-0.13,0.37-0.23c0.21-0.18,0.43-0.41,0.43-0.69c0-0.05-0.01-0.1-0.02-0.14c-0.25-0.46-0.64-0.7-1.24-0.79
	c-0.45-0.06-0.91-0.02-1.36,0.02l-0.18,0.02l-0.04,0.03l-0.06,0.04l-0.05,0.03c-0.02,0-0.09,0.05-0.07,0.15
	c0.13,0.26,0.33,0.26,0.52,0.23c0,0,0.15-0.03,0.15-0.03l0.15-0.03c0.06-0.01,0.14-0.01,0.24,0c-0.26,1.06-0.49,2.05-0.66,3.14
	c-0.01-0.01-0.03-0.02-0.03-0.02s-0.04,0.03-0.06,0.04c-0.01-0.01-0.07-0.08-0.07-0.08l-0.07,0.01c0,0-0.04,0.02-0.07,0.03
	c-0.02,0-0.03-0.01-0.04-0.01c0,0,0-0.01,0-0.01c0-0.02-0.01-0.05-0.01-0.05l-0.07-0.06h-0.16c0,0,0.04,0.15,0.04,0.16h0l-0.06,0.13
	h0.15c0.04,0.01,0.16,0.05,0.2,0.06c0.08,0.12,0.21,0.11,0.28,0.09l-0.04-0.02l0.22,0.07l0.13-0.01l0.07-0.01
	c0.13-0.01,0.23-0.03,0.32,0.03l0.03,0.02l0.03,0c0.6-0.08,1.29-0.22,1.78-0.75l0.02-0.02l0.05-0.22c0.01-0.02,0.01-0.3,0.01-0.3
	l0-0.01l0,0.01C124.47,47.18,124.1,46.96,123.68,46.76 M122.97,45.95c0.05-0.19,0.07-0.38,0.09-0.61c0.09,0.01,0.2,0.03,0.2,0.03
	l0.31,0.05c0.16,0.04,0.29,0.11,0.41,0.27c-0.26,0.47-0.63,0.68-1.12,0.83C122.89,46.34,122.97,45.95,122.97,45.95 M123.24,48.18
	c0,0-0.56,0.15-0.56,0.15s-0.13,0.03-0.24,0.06c0.09-0.52,0.15-0.89,0.29-1.39c0.13,0.13,0.26,0.17,0.39,0.19
	c0,0,0.16,0.02,0.16,0.02l0.32,0.07c0.1,0.02,0.19,0.07,0.25,0.13c0,0.01,0.18,0.15,0.21,0.18
	C123.86,47.88,123.61,48.07,123.24,48.18 M129.51,48.65l0.02-0.19l-0.01,0.03l-0.15-0.21l-0.06-0.06c-0.14-0.31-0.18-0.69-0.21-1.12
	c0.01-0.01,0.03-0.02,0.03-0.02c0,0,0.08-0.02,0.08-0.02c0.11-0.02,0.25-0.04,0.26-0.16l-0.02,0.04c0.02-0.03,0.08-0.11,0.04-0.2
	c-0.04-0.08-0.13-0.09-0.2-0.1l-0.04,0l0.06,0c-0.05-0.06-0.12-0.05-0.2-0.04c0,0-0.01,0-0.02,0c-0.01-0.08-0.01-0.19-0.01-0.19
	l-0.06-1.01c0-0.02-0.04-0.2-0.04-0.2l-0.11-0.38c-0.05-0.11-0.16-0.23-0.28-0.23c-0.05,0-0.14,0.01-0.2,0.12l-0.01,0.01l-0.01,0.05
	c0,0.03-0.01,0.09,0.02,0.13c0.02,0.04,0.05,0.12,0.05,0.14c-0.02-0.01-0.04-0.01-0.04-0.01l-0.05,0.04
	c-0.33,0.36-0.6,0.81-0.84,1.21l-0.51,0.78c0,0,0.01,0.04,0.02,0.05c-0.06,0.02-0.12,0.06-0.14,0.16c-0.4,0.49-0.63,0.9-0.71,1.26
	l0,0.02l0,0.02c0.03,0.17,0.18,0.29,0.33,0.27l0.04-0.01l0.62-1.04c0.46-0.34,0.83-0.45,1.35-0.58c0,0,0.05-0.01,0.1-0.02
	c0.01,0.12,0.03,0.31,0.03,0.31l0.02,0.16c0,0.02,0.07,0.27,0.07,0.27c0.07,0.33,0.17,0.73,0.52,0.79h0c0.02,0,0.03,0.02,0.05,0.02
	l0.26,0.02c0,0-0.07-0.06-0.13-0.11C129.48,48.67,129.51,48.65,129.51,48.65 M127.83,46.89c0.18-0.28,0.55-0.85,0.74-1.13
	c0.01,0.19,0.02,0.4,0.02,0.4s0.02,0.39,0.02,0.51C128.34,46.72,128.08,46.8,127.83,46.89 M51.5,46.73l-0.12,0.07l-0.02,0.01
	l-0.01,0.02l-0.05,0.06l-0.07,0.07c0,0-0.03,0.02-0.03,0.02l-0.07,0.05l-0.04,0.04l-0.02,0.05c-0.01,0-0.05,0.02-0.05,0.02
	s-0.01,0.01-0.02,0.01h0c-0.04-0.02-0.07-0.04-0.07-0.04s-0.01,0.01-0.01,0.01c0,0-0.01,0-0.01,0l-0.08,0.08
	c0,0,0.01,0.01,0.01,0.01h-0.01c0,0,0.01,0.04,0.01,0.04c-0.02,0.01-0.07,0.02-0.07,0.02c-0.03,0.01-0.08,0.04-0.11,0.1
	c-0.02-0.02-0.04-0.04-0.04-0.04l-0.15,0.1c0,0-0.04,0.03-0.07,0.05c0,0-0.01,0-0.01,0l-0.08,0.04l0.01-0.01l-0.05,0.04l-0.02,0.08
	c0,0,0,0,0,0.01c-0.01,0.01-0.01,0.01-0.01,0.01c-0.01,0.01-0.02,0.02-0.08,0.01c0-0.01-0.01-0.03-0.01-0.03
	c-0.01,0-0.02,0.02-0.03,0.02l0,0l-0.03,0.03c0,0-0.01,0-0.01,0.01c0,0-0.01,0.01-0.02,0.02c-0.02,0-0.04-0.01-0.06,0l-0.05,0.02
	c0,0,0,0.01,0,0.02l0,0l-0.09,0.06l-0.07,0.07c-0.01,0-0.03,0.02-0.03,0.02c0,0-0.1,0.05-0.13,0.06c-0.13-0.02-0.22,0.04-0.26,0.07
	c-0.05,0.03-0.07,0.04-0.08,0.03l-0.03-0.02l-0.06,0.02l-0.24,0.06c-0.01,0-0.33,0.03-0.33,0.03c-0.21-0.03-0.4-0.16-0.51-0.36
	c-0.07-0.33,0.04-0.7,0.35-1.14c0.62-0.91,1.24-1.35,1.9-1.35c0.02,0.01,0.06,0.04,0.1,0.1c0,0,0.04,0.05,0.04,0.05
	c-0.01-0.01,0.14,0.13,0.14,0.13l0.07,0.06l0.03-0.08c0.1-0.1,0.07-0.22,0.05-0.3c-0.01-0.02-0.02-0.07-0.02-0.07
	c0.04-0.08-0.07-0.15-0.12-0.18c-0.02-0.01-0.11-0.08-0.11-0.08l-0.02-0.02l-0.06-0.02l-0.48-0.01c-0.23,0-0.41,0.05-0.53,0.15
	c-0.17,0.05-0.41,0.17-0.57,0.28c-0.33,0.23-0.86,0.74-0.98,1.21c-0.13,0.1-0.19,0.24-0.24,0.39c0,0-0.07,0.35-0.07,0.35l-0.03,0.15
	c0,0.04-0.01,0.08-0.01,0.12c0,0.35,0.16,0.66,0.48,0.96c0.21,0.2,0.54,0.28,0.88,0.22c0.08,0.01,0.14-0.03,0.19-0.07l0.11,0.03
	c0,0,0.02-0.03,0.04-0.07c0.04,0,0.09-0.01,0.16-0.03c0,0,0.21-0.07,0.21-0.07c0.02-0.01,0.32-0.15,0.32-0.15l0.32-0.14
	c0.17-0.09,0.38-0.22,0.52-0.4c0.28-0.09,0.65-0.52,0.78-0.83l0.02-0.05c0,0-0.03-0.03-0.04-0.05c0.01-0.03,0.12-0.32,0.12-0.32
	L51.5,46.73z M50.6,47.42L50.6,47.42l0.01-0.03C50.6,47.4,50.6,47.41,50.6,47.42 M50.98,47.17C50.98,47.17,50.98,47.17,50.98,47.17
	C50.98,47.17,50.98,47.17,50.98,47.17C50.98,47.17,50.98,47.17,50.98,47.17 M56.16,46.13c-0.05-0.32-0.17-0.53-0.37-0.65
	c0,0-0.3-0.12-0.3-0.12c0,0-0.16-0.04-0.16-0.04l-0.18-0.05c-0.02-0.02-0.1,0-0.1,0l-0.03-0.02l-0.07,0.01l-0.23,0.04l-0.04,0
	c0,0-0.1,0-0.1,0c0,0-0.01,0-0.01,0v-0.01c0-0.07,0-0.16-0.08-0.19c-0.11-0.04-0.17-0.01-0.22,0.03c-0.02,0.01-0.06,0.02-0.06,0.02
	l-0.03,0.01l-0.06,0.02c-0.32,0.37-0.49,0.83-0.67,1.34c-0.14,0.54-0.15,1.34,0.28,1.84c0.4,0.46,1.06,0.17,1.28,0.08
	c0.02-0.01,0.15-0.09,0.15-0.09l0.1-0.06c0.14-0.07,0.22-0.17,0.28-0.24c0,0,0.09-0.16,0.09-0.16s0.01-0.03,0.03-0.05
	c0.01,0,0.02,0,0.03,0l0.05-0.02l0.01-0.04l0.02-0.1v-0.05c0,0,0.01,0.01,0.01,0.01l0.09-0.12l0.02-0.04
	c0.05-0.04,0.1-0.09,0.1-0.15c0-0.02-0.02-0.04-0.02-0.06c0.1-0.11,0.17-0.26,0.2-0.48l0.02-0.53L56.16,46.13L56.16,46.13z
	 M54.7,47.9c-0.01,0-0.18,0.05-0.18,0.05l-0.23,0.06c-0.15,0.02-0.25-0.01-0.31-0.12c-0.11-0.17-0.15-0.37-0.15-0.58
	c0-0.63,0.39-1.32,0.54-1.57c0.05-0.04,0.12-0.05,0.19-0.06c0,0.02,0,0.06,0,0.06l0.17,0l0.45,0.03c0.25,0.04,0.41,0.15,0.51,0.34
	c0,0.04,0,0.07,0,0.11C55.69,47.01,55.38,47.53,54.7,47.9 M101.21,44.65c0.48-0.07,0.96-0.28,1.24-0.49
	c0.08-0.06,0.13-0.15,0.16-0.25c-0.02-0.08-0.03-0.2-0.14-0.17c-0.41,0.36-0.95,0.58-1.24,0.69c0-0.01-0.09,0.05-0.09,0.05
	c0.03,0.06,0.01,0.09,0,0.1C101.14,44.68,101.16,44.61,101.21,44.65 M63.1,45.01l-0.06-0.08c-0.01-0.01-0.05-0.04-0.05-0.04
	l-0.07-0.06c-0.02-0.02-0.05-0.03-0.08-0.02c-0.17,0.03-0.21,0.2-0.24,0.3c0,0-0.02,0.13-0.02,0.13l-0.06,0.25
	c0,0.02-0.03,0.04-0.03,0.04c-0.02,0.01-0.02,0.04-0.04,0.05c-0.02,0-0.03-0.02-0.04-0.02h-0.01c-0.02,0-0.03,0.03-0.05,0.05
	c0,0,0-0.01,0-0.01c0,0-0.01,0.01-0.01,0.02c-0.01,0.01-0.02,0.01-0.02,0.02c0,0,0,0.01-0.01,0.02c0,0-0.01,0.01-0.01,0.01
	c-0.1,0.01-0.13,0.1-0.14,0.16c0,0.11-0.04,0.15-0.09,0.2c-0.06,0.05-0.09,0.09-0.12,0.15c0,0-0.01,0-0.01,0
	c-0.03,0.01-0.05,0.04-0.05,0.07c0,0.01,0,0.02,0.01,0.03c0,0,0,0.01,0,0.01c0,0,0,0.01,0,0.01c0,0-0.01,0-0.01-0.01
	c0,0,0.01,0.01,0.01,0.02c-0.02,0.02-0.15,0.19-0.15,0.19l-0.05,0.07l-0.14,0.17c-0.23,0.32-0.57,0.67-0.96,0.67
	c-0.33-0.3-0.41-0.75-0.49-1.23l-0.09-0.5c-0.01-0.03-0.08-0.17-0.08-0.17c0-0.01-0.07-0.2-0.07-0.2c-0.09-0.18-0.22-0.25-0.38-0.21
	c-0.11,0.05-0.14,0.12-0.14,0.19c0,0.07,0.03,0.13,0.05,0.17c0,0,0.03,0.06,0.03,0.06c0.04,0.08,0.08,0.16,0.08,0.23
	c0,0,0,0.01,0,0.01c-0.11,0.45-0.28,0.9-0.45,1.28c0,0-0.05,0.12-0.05,0.12l-0.46,1.19c0,0.01-0.01,0.02-0.01,0.03
	c0,0.01,0,0.01,0,0.02c0.01,0.08,0.04,0.16,0.12,0.19c0,0,0.09,0.04,0.09,0.04c0.02,0.01,0.05,0.02,0.07,0.01l0.04-0.01l0.07-0.01
	c0.06-0.01,0.11-0.06,0.14-0.14l0.13-0.33c0,0,0.42-1.02,0.56-1.36c0.03,0.1,0.06,0.21,0.06,0.21c0.15,0.44,0.38,0.9,0.84,0.97
	c0.03,0,0.05-0.03,0.08-0.05c0.01,0.01,0.02,0.02,0.02,0.02c0.02,0.02,0.07,0.04,0.1,0.04c0.36-0.09,0.73-0.36,1.08-0.82
	c0,0,0.32-0.52,0.32-0.52c0,0,0.06-0.13,0.06-0.13s0.04-0.08,0.07-0.14c-0.01,0.08-0.04,0.21-0.04,0.21l-0.02,0.13
	c0,0.01-0.06,0.34-0.06,0.34c0,0.03-0.03,0.49-0.03,0.49l-0.03,0.38c0,0.04,0,0.08,0,0.13c0,0.21,0.03,0.46,0.19,0.69
	c0.01,0.02,0.03,0.03,0.06,0.04l0.06,0.01l0.2,0.03c0.07,0,0.11-0.03,0.14-0.06c0.03-0.04,0.04-0.08,0.04-0.14
	c0-0.02,0-0.05-0.01-0.07c-0.01-0.02-0.07-0.18-0.07-0.18c-0.03-0.05-0.07-0.08-0.1-0.09c0-0.06-0.01-0.13-0.01-0.19
	c0-0.51,0.07-0.98,0.13-1.35l0.12-0.66l0.16-0.94c0-0.02,0-0.05-0.02-0.07L63.1,45.01z M69.93,45.02l-0.07-0.09
	c-0.01-0.01-0.04-0.04-0.04-0.04l-0.07-0.06c-0.02-0.02-0.05-0.03-0.08-0.02c-0.17,0.03-0.21,0.2-0.23,0.3c0,0-0.02,0.14-0.02,0.14
	l-0.06,0.24c0,0.02-0.03,0.04-0.03,0.04c-0.02,0.01-0.03,0.04-0.04,0.06c-0.01,0-0.02-0.02-0.04-0.02h-0.01
	c-0.02,0-0.03,0.03-0.05,0.05c0,0,0-0.01,0-0.01c0,0-0.01,0.01-0.01,0.02c-0.01,0.01-0.02,0.01-0.02,0.02c0,0,0,0.01-0.01,0.02
	c0,0,0,0.01-0.01,0.01c-0.09,0.01-0.12,0.09-0.14,0.15c0,0.12-0.04,0.15-0.09,0.2c-0.05,0.05-0.09,0.09-0.12,0.14c0,0-0.01,0-0.01,0
	c-0.03,0.01-0.05,0.04-0.05,0.07c0,0.01,0,0.02,0.01,0.03c0,0,0,0,0,0.01c0,0,0,0.01,0,0.01c0,0-0.01,0-0.01-0.01
	c0,0,0.01,0.01,0.01,0.02c-0.02,0.02-0.14,0.19-0.14,0.19l-0.05,0.07c0,0-0.14,0.17-0.14,0.17c-0.23,0.32-0.57,0.67-0.96,0.67
	c-0.33-0.3-0.41-0.75-0.49-1.23l-0.1-0.5c-0.01-0.02-0.08-0.17-0.08-0.17c-0.01-0.03-0.07-0.2-0.07-0.2
	c-0.09-0.18-0.21-0.25-0.38-0.21c-0.02,0.01-0.13,0.12-0.13,0.12l0.04,0.24c0,0,0.03,0.06,0.03,0.06c0.04,0.08,0.08,0.15,0.08,0.23
	c0,0,0,0.01,0,0.01c-0.11,0.45-0.29,0.9-0.45,1.28c0,0-0.05,0.12-0.05,0.12l-0.46,1.19c0,0.01-0.01,0.02-0.01,0.03
	c0,0.01,0,0.01,0,0.02c0.01,0.07,0.04,0.15,0.12,0.19c0,0,0.04,0.02,0.04,0.02l0.04,0.02c0.02,0.01,0.05,0.02,0.07,0.01l0.04-0.01
	l0.07-0.01c0.06-0.02,0.11-0.06,0.14-0.14l0.1-0.26c0,0,0.44-1.08,0.59-1.43c0.03,0.1,0.06,0.21,0.06,0.21
	c0.16,0.44,0.38,0.9,0.84,0.97c0.03,0,0.05-0.03,0.08-0.05c0.01,0.01,0.02,0.02,0.02,0.02c0.02,0.02,0.07,0.04,0.1,0.04
	c0.36-0.09,0.73-0.36,1.09-0.82c0,0,0.32-0.52,0.32-0.52l0.08-0.16c0,0,0.03-0.06,0.06-0.12c-0.01,0.08-0.04,0.21-0.04,0.21
	l-0.02,0.13c0,0.01-0.06,0.34-0.06,0.34c0,0.03-0.03,0.5-0.03,0.5l-0.03,0.37c0,0.04,0,0.08,0,0.12c0,0.21,0.03,0.47,0.19,0.7
	c0.01,0.02,0.03,0.03,0.06,0.04l0.06,0.01l0.2,0.03c0.07,0,0.11-0.03,0.14-0.06c0.03-0.04,0.05-0.08,0.05-0.14
	c0-0.02,0-0.05-0.01-0.07c-0.01-0.03-0.07-0.18-0.07-0.18c-0.03-0.05-0.06-0.08-0.1-0.09c0-0.07-0.01-0.13-0.01-0.2
	c0-0.51,0.07-0.97,0.13-1.34l0.12-0.67l0.16-0.93c0-0.02,0-0.05-0.02-0.07L69.93,45.02z M82.37,44.96c0.02-0.05,0.03-0.1,0.03-0.1
	l-0.17,0.07L82.05,45c0,0,0.01,0.02,0.02,0.04c-0.01,0.01-0.04,0.04-0.04,0.04l-0.01,0.03c-0.01,0.03-0.01,0.05-0.01,0.08
	c0,0.06,0.03,0.11,0.06,0.16c-0.01,0-0.03-0.01-0.03-0.01s0,0.15-0.01,0.18c0,0.01-0.01,0.02-0.01,0.02l-0.04,0.17
	c-0.02,0.08-0.04,0.15-0.04,0.19c0,0.01,0.01,0.01,0.02,0.02c-0.04,0.14-0.16,0.56-0.16,0.56l-0.14,0.54c0,0.01-0.1,0.42-0.1,0.42
	l-0.03,0.13c0-0.03-0.04,0.19-0.04,0.19c-0.01,0.1-0.03,0.16-0.06,0.2c-0.39-0.34-0.68-0.73-0.97-1.15
	c-0.22-0.32-0.45-0.64-0.74-0.95c0.01-0.04,0.02-0.08,0.02-0.12c0-0.14-0.04-0.28-0.11-0.36c-0.09-0.08-0.16-0.08-0.21-0.07
	c-0.06,0.01-0.12,0.06-0.17,0.13c-0.01-0.01-0.02-0.02-0.02-0.02c-0.13-0.11-0.27-0.22-0.46-0.22c-0.03,0.01-0.22,0.16-0.22,0.16
	l-0.07,0.1l0.08,0.07l0.06,0.06l0.19,0.17l0.01-0.02c0.04,0,0.15,0.04,0.3,0.23c-0.22,0.81-0.44,1.75-0.46,2.68
	c0,0.01,0,0.01,0,0.02c0,0.05,0.06,0.09,0.09,0.12l0.06,0.05l0.07,0.06l0.11,0.01l0.09,0.01l0.06-0.04l0.04-0.04l0.02-0.05
	c0.01-0.84,0.22-1.65,0.41-2.31c0.14,0.19,0.5,0.66,0.5,0.66c0.36,0.52,0.74,1.06,1.26,1.39c0.19,0.09,0.28,0.06,0.38,0l0.13-0.06
	l0.02-0.04c0.17-0.42,0.23-0.87,0.28-1.31c0,0,0.07-0.5,0.07-0.51c0.01-0.02,0.02-0.04,0.02-0.06c0-0.01,0-0.02,0-0.03l0.08-0.06
	c0,0-0.04-0.03-0.06-0.04c0.01-0.01,0.02-0.02,0.02-0.02l0.01-0.1c0-0.01-0.01-0.01-0.01-0.01c0.03-0.1,0.19-0.69,0.19-0.69
	c0.04-0.11,0.06-0.21,0.06-0.29c0-0.17-0.07-0.27-0.15-0.34C82.41,44.99,82.38,44.96,82.37,44.96 M75.77,44.8l-0.01-0.01
	c-0.03-0.01-0.08-0.03-0.08-0.03c-0.03,0-0.05,0.01-0.07,0.03c-0.01-0.01-0.02-0.02-0.03-0.02h-0.01c-0.04,0-0.07,0.02-0.09,0.06
	L75.3,45.3c0,0-0.15,0.53-0.15,0.54c0,0-0.07,0.15-0.07,0.15c0,0-0.04,0.15-0.04,0.15c-0.01,0.06-0.03,0.12-0.07,0.19
	c-0.02,0-0.04,0.01-0.06,0.03c-0.02,0.02-0.03,0.04-0.03,0.07c0,0.01,0,0.02,0.01,0.03c0.01,0.02,0.01,0.03,0.01,0.04
	c0,0.02-0.01,0.03-0.02,0.03l-0.04,0.04c-0.02,0.02-0.05,0.04-0.05,0.06c0,0,0,0.02,0,0.03c-0.02,0.01-0.04,0.02-0.05,0.04
	l-0.03,0.04l-0.03,0.04c-0.02,0.04-0.04,0.08-0.04,0.14c0,0.01,0.01,0.03,0.01,0.03c-0.03,0-0.04,0.04-0.06,0.07
	c0,0-0.01,0.02-0.03,0.04c-0.01,0-0.02,0-0.03,0.01c-0.03,0.01-0.06,0.04-0.06,0.07l0,0.03c-0.01,0-0.01,0-0.01,0.01
	c0,0,0,0.01,0,0.01c0,0.01,0,0.01,0,0.01l-0.24,0.24c0,0-0.12,0.14-0.12,0.14c-0.19,0.25-0.4,0.5-0.65,0.62
	c-0.05,0.04-0.09,0.05-0.13,0.04c-0.07-0.02-0.13-0.08-0.17-0.16c0-0.03,0-0.06,0-0.09c0-0.79,0.13-1.52,0.39-2.19
	c0.03-0.06,0.05-0.12,0.05-0.18c0-0.13-0.06-0.24-0.17-0.3c-0.01-0.01-0.02-0.01-0.04-0.01c-0.17-0.01-0.36,0.1-0.38,0.34
	c0-0.01-0.15,0.71-0.15,0.71l-0.14,0.64c-0.09,0.56-0.07,0.99,0.07,1.4c0.13,0.28,0.38,0.35,0.56,0.41c0.36,0.05,0.61-0.2,0.79-0.37
	c0.19-0.18,0.34-0.4,0.48-0.59c0,0,0.13-0.19,0.13-0.19l0.07-0.1c0,0,0.02-0.02,0.04-0.05c-0.01,0.06-0.02,0.15-0.02,0.15
	l-0.04,0.41c0,0.01,0.01,0.21,0.01,0.21c0,0.11,0.02,0.44,0.25,0.57c0.13,0.03,0.26,0.02,0.3-0.17c-0.02-0.17-0.03-0.34-0.03-0.51
	c0-0.27,0.02-0.56,0.07-0.88l0.14-0.78l0.1-0.52c0,0,0.06-0.25,0.06-0.26v0c0,0,0,0,0,0c0,0,0.05-0.13,0.05-0.13
	c0.06-0.15,0.11-0.31,0.11-0.48c0-0.07-0.01-0.15-0.03-0.22C75.82,44.84,75.79,44.81,75.77,44.8"/>
<path class="st1" d="M22.6,24.55l-5.13,1.35l4.88-3.6l-3.95-4.35l5.02,2.32l0.24-5l1.62,4.54C29.91,12.62,37.26,5.49,48.83,0
	C19.41,13.95,5.43,23.73,0.01,17.11c-0.41-0.5,10,14.97,17.97,34.43C17.98,51.54,15.71,38.58,22.6,24.55"/>
<polygon class="st2" points="49.58,11.76 49.54,11.76 49.54,23.23 47.72,23.23 47.72,8.81 49.84,8.81 57.73,20.28 57.77,20.28 
	57.77,8.81 59.59,8.81 59.59,23.23 57.48,23.23 "/>
<path class="st2" d="M64.16,15.96c0.05-1.64,1.31-2.1,2.79-2.1c1.39,0,2.6,0.28,2.6,1.74c0,0.95-0.6,1.15-1.57,1.27l-1.96,0.24
	c-2.89,0.36-3.87,1.35-3.87,3.29c0,1.38,0.67,3.19,3.67,3.19c1.46,0,3.15-0.63,3.84-1.72c0.12,1.19,0.69,1.47,1.55,1.47
	c0.41,0,0.93-0.04,1.34-0.12v-1.42c-0.17,0.04-0.41,0.08-0.6,0.08c-0.53,0-0.77-0.28-0.77-0.91v-5.7c0-2.47-2.31-3.01-4.15-3.01
	c-2.7,0-4.25,1.03-4.47,3.68H64.16 M69.54,19.05c0,1.76-1.64,2.97-3.58,2.97c-1.26,0-2.1-0.69-2.1-1.68c0-1.11,0.71-1.54,2.05-1.74
	l1.94-0.28c0.96-0.14,1.43-0.28,1.69-0.63V19.05z"/>
<path class="st2" d="M74.74,12.64h1.72v1.6h0.03c0.81-1.47,2.24-1.96,3.53-1.96c2.17,0,3.79,1.09,3.79,3.74v7.21h-1.72v-6.81
	c0-1.56-0.83-2.44-2.67-2.44c-1.57,0-2.96,1.07-2.96,3.15v6.1h-1.72V12.64"/>
<path class="st2" d="M87.35,9.39h1.72v3.25h2.58v1.58h-2.58v6.53c0,0.85,0.52,1.15,1.39,1.15c0.4,0,0.79-0.06,1.19-0.14v1.7
	c-0.58,0.12-1.22,0.14-1.93,0.14c-1.69,0-2.38-0.97-2.38-2.51v-6.87h-1.86v-1.58h1.86V9.39"/>
<path class="st2" d="M107.36,19.9c0,0.95,0.65,2.12,2.84,2.12c2.22,0,2.75-0.91,2.75-1.66c0-0.75-0.33-1.19-1.7-1.41l-2.84-0.44
	c-1.29-0.2-2.44-1.17-2.44-2.81c0-2.14,1.58-3.41,4.11-3.41c2.96,0,4.25,1.49,4.4,3.56h-1.72c-0.05-1.07-0.91-1.98-2.7-1.98
	c-1.1,0-2.38,0.36-2.38,1.62c0,0.71,0.28,1.11,1.5,1.31l2.44,0.39c2.27,0.36,3.15,1.31,3.15,2.81c0,2.46-1.77,3.62-4.52,3.62
	c-2.07,0-4.42-0.63-4.61-3.7H107.36"/>
<path class="st2" d="M103.37,18.28c0-4.38-2.51-6-4.89-6c-3.51,0-5.23,2.61-5.23,5.66s1.72,5.66,5.23,5.66
	c1.77,0,3.79-1.03,4.65-3.58h-1.82c-0.59,1.49-1.93,1.88-2.91,1.88c-1.05,0-2.15-0.55-2.79-1.6C95.24,19.74,95,18.9,95,17.94
	c0-0.78,0.16-1.48,0.42-2.02c0.55-1.25,1.71-1.94,2.98-1.94c1.62,0,2.89,1.07,3.15,2.99h-5.11l-0.85,1.58h7.78V18.28"/>
<polygon class="st2" points="60.19,26.19 62.72,26.19 62.72,40.62 60.9,40.62 60.9,28.66 60.86,28.66 56.08,40.62 54.46,40.62 
	49.69,28.9 49.66,28.9 49.66,40.62 47.83,40.62 47.83,26.19 50.4,26.19 55.27,38.15 "/>
<path class="st2" d="M79.39,26.78h1.72v3.25h2.58v1.58h-2.58v6.53c0,0.85,0.52,1.15,1.39,1.15c0.4,0,0.79-0.06,1.19-0.14v1.7
	c-0.59,0.12-1.22,0.14-1.93,0.14c-1.69,0-2.37-0.97-2.37-2.5v-6.87h-1.86v-1.58h1.86V26.78"/>
<path class="st2" d="M86.38,30.03h1.72v1.94h0.03c0.81-1.68,1.96-2.3,3.1-2.3c0.43,0,0.65,0.02,0.98,0.12v2.18
	c-0.43-0.12-0.76-0.2-1.22-0.2c-1.7,0-2.89,1.17-2.89,3.48v5.37h-1.72V30.03"/>
<path class="st2" d="M93.67,35.32c0,3.05,1.72,5.66,5.23,5.66c3.51,0,5.23-2.61,5.23-5.66c0-3.05-1.72-5.66-5.23-5.66
	C95.39,29.67,93.67,32.27,93.67,35.32 M102.31,35.32c0,1.92-0.91,3.96-3.41,3.96c-2.5,0-3.41-2.04-3.41-3.96
	c0-1.92,0.91-3.96,3.41-3.96C101.4,31.36,102.31,33.4,102.31,35.32"/>
<path class="st2" d="M106.87,44.7h1.72v-5.44h0.03c0.69,1.15,2.08,1.72,3.42,1.72c2.72,0,4.9-2.04,4.9-5.6c0-3.56-2.18-5.6-4.9-5.6
	c-1.33,0-2.75,0.61-3.42,1.72h-0.03v-1.47h-1.72V44.7 M115.13,35.38c0,2.42-1.31,3.9-3.3,3.9c-2.01,0-3.34-1.47-3.34-3.9
	c0-2,1-3.9,3.34-3.9C114.15,31.48,115.13,33.38,115.13,35.38"/>
<path class="st2" d="M119.29,35.32c0,3.05,1.72,5.66,5.23,5.66s5.23-2.61,5.23-5.66c0-3.05-1.72-5.66-5.23-5.66
	S119.29,32.27,119.29,35.32 M127.93,35.32c0,1.92-0.91,3.96-3.41,3.96c-2.49,0-3.41-2.04-3.41-3.96c0-1.92,0.91-3.96,3.41-3.96
	C127.02,31.36,127.93,33.4,127.93,35.32"/>
<rect x="132.49" y="26.07" class="st2" width="1.72" height="14.55"/>
<polygon class="st3" points="67.24,27.39 67.27,28.23 74.11,28.23 74.11,26.7 "/>
<path class="st2" d="M146.97,35.67c0-4.39-2.51-6-4.89-6c-3.51,0-5.23,2.61-5.23,5.66c0,3.05,1.72,5.66,5.23,5.66
	c1.77,0,3.79-1.03,4.65-3.58h-1.82c-0.59,1.49-1.93,1.88-2.91,1.88c-1.05,0-2.15-0.55-2.79-1.6c-0.37-0.56-0.61-1.4-0.61-2.35
	c0-0.78,0.16-1.48,0.42-2.02c0.55-1.25,1.71-1.94,2.98-1.94c1.62,0,2.89,1.07,3.15,2.99h-5.1l-0.85,1.58h7.78V35.67"/>
<path class="st2" d="M76.01,35.67c0-4.39-2.51-6-4.89-6c-3.51,0-5.23,2.61-5.23,5.66c0,3.05,1.72,5.66,5.23,5.66
	c1.77,0,3.79-1.03,4.65-3.58h-1.82c-0.59,1.49-1.93,1.88-2.91,1.88c-1.05,0-2.15-0.55-2.79-1.6c-0.37-0.56-0.61-1.4-0.61-2.35
	c0-0.78,0.16-1.48,0.42-2.02c0.55-1.25,1.71-1.94,2.97-1.94c1.62,0,2.89,1.07,3.15,2.99h-5.11l-0.85,1.58h7.78V35.67"/>
<path class="st4" d="M38.63,12.36l0.38-0.38c-4.43,2.36-8.17,5.66-11.04,9.73l6.79,1.1l-8.14,0.97c-0.01,0.02-0.03,0.04-0.04,0.06
	c-0.06,0.1-0.11,0.2-0.17,0.3l3.39,8.92l-4.5-6.91c-1.79,3.37-3.35,7.11-4.31,10.67c-0.26,0.98-0.72,2.71,0.37,3.37
	c1.27,0.78,3.48-0.54,4.56-1.1c5.7-2.99,12.38-7.98,14.27-14.43C41.47,20.32,39.6,16.5,38.63,12.36"/>
</svg>
