<?xml version="1.0" encoding="utf-8"?>
<!-- Generator: Adobe Illustrator 23.0.6, SVG Export Plug-In . SVG Version: 6.00 Build 0)  -->
<svg version="1.1" id="Calque_1" xmlns="http://www.w3.org/2000/svg" xmlns:xlink="http://www.w3.org/1999/xlink" x="0px" y="0px"
	 viewBox="0 0 146.97 51.54" style="enable-background:new 0 0 146.97 51.54;" xml:space="preserve">
<style type="text/css">
	.st0{fill:#FFFFFF;}
	.st1{fill-rule:evenodd;clip-rule:evenodd;fill:#FFFFFF;}
</style>
<path class="st0" d="M51.64,46.68c0,0.02-0.05,0.11-0.05,0.11c0.02,0,0.02,0,0.02,0.01l0,0.01l0.01,0.02c0.01,0,0.02,0.01,0.02,0.01
	c-0.13,0.33-0.51,0.74-0.74,0.79c-0.12,0.17-0.31,0.28-0.51,0.38c-0.2,0.1-0.43,0.19-0.61,0.28c-0.06,0.02-0.14,0.05-0.21,0.07
	c-0.08,0.03-0.15,0.04-0.17,0.03c-0.02,0.01-0.02,0.01-0.03,0.04v0.01c-0.01,0.02-0.01,0.02-0.02,0.02c-0.04-0.04-0.09-0.02-0.12,0
	c-0.04,0.03-0.08,0.06-0.13,0.04c-0.27,0.05-0.59,0.01-0.81-0.19c-0.27-0.25-0.49-0.57-0.44-0.99c0.03-0.14,0.05-0.32,0.1-0.49
	c0.05-0.16,0.11-0.3,0.23-0.37c0.1-0.45,0.63-0.95,0.95-1.17c0.14-0.1,0.39-0.23,0.55-0.27c0.12-0.11,0.3-0.14,0.48-0.14
	c0.18-0.01,0.37,0.01,0.48,0.01c0.03,0.04,0.1,0.08,0.13,0.1c0.05,0.03,0.09,0.06,0.07,0.1c0,0.02,0.01,0.05,0.02,0.08
	c0.02,0.08,0.05,0.16-0.02,0.22c-0.04-0.01-0.08-0.05-0.1-0.09l-0.03-0.05c-0.04-0.06-0.1-0.12-0.18-0.14
	c-0.84,0-1.48,0.67-1.97,1.38c-0.22,0.33-0.45,0.76-0.35,1.23c0.13,0.24,0.36,0.37,0.59,0.4c0.11-0.02,0.23-0.02,0.32-0.03
	c0.1-0.01,0.2-0.02,0.28-0.07c0.06,0.03,0.12-0.01,0.17-0.04c0.06-0.04,0.12-0.08,0.22-0.06c0.09-0.03,0.14-0.05,0.17-0.08
	c0.02-0.01,0.03-0.03,0.05-0.05c0.02-0.02,0.04-0.04,0.07-0.07c0.02,0.02,0.08,0.06,0.08,0c0.01-0.01,0.01-0.03,0.01-0.03
	c0-0.03,0-0.05,0.06,0l0.02-0.02c-0.01,0,0,0,0,0c0.01-0.02,0.06-0.07,0.08-0.07l0.01-0.01c-0.01,0.01-0.02,0.01-0.05,0.04
	c0.1,0.02,0.14,0,0.18-0.04c0.04-0.04,0.05-0.07,0.12-0.09c-0.01-0.03-0.02-0.05-0.06-0.04c-0.01,0.01-0.02,0.01-0.03,0.01
	l0.01,0.03c0.09-0.1,0.23-0.14,0.34-0.24l-0.01,0.01c0,0.02,0,0.02-0.01,0.03c-0.01,0.02,0,0.04,0.05,0.07
	c-0.02-0.09,0.03-0.12,0.09-0.14c0.01,0-0.01-0.01-0.01-0.01c0.01-0.02,0.01-0.02-0.02-0.02c0,0.04,0.02,0.1,0.06,0.06
	c0.01-0.01,0.01-0.02,0.02-0.02c0.01-0.01,0.02-0.02,0.03-0.02c0.01-0.01,0.01-0.02,0.02-0.03l0.03-0.03
	c0.01-0.02,0.04-0.04,0.04-0.1c-0.05,0.06-0.07,0.06-0.07-0.01v-0.01c0-0.01-0.01,0-0.01,0c0.01,0.01,0.01,0.04,0.01,0.06
	c0.03-0.02,0.04-0.04,0.06-0.06c0.01-0.01,0.02-0.02,0.02-0.02s0-0.01-0.01,0c0.01-0.01-0.01,0-0.01,0.01
	c-0.01,0.01-0.03,0.02-0.03,0.03c-0.01,0.03-0.01,0.05,0.04,0.08c0.03-0.03,0.05-0.04,0.06-0.06c0.02,0,0.03-0.02,0.05-0.03
	c0.03-0.01,0.04-0.04,0.06-0.1c0.03-0.01,0.07-0.04,0.11-0.07c0.05-0.04,0.09-0.1,0.13-0.14C51.56,46.76,51.63,46.69,51.64,46.68
	C51.64,46.68,51.64,46.68,51.64,46.68"/>
<path class="st0" d="M48.21,48.37c-0.26-0.24-0.49-0.56-0.49-0.96c0-0.03,0-0.08,0.01-0.12c0.03-0.14,0.05-0.32,0.1-0.49
	c0.05-0.15,0.11-0.31,0.24-0.41c0.14-0.48,0.66-0.96,0.98-1.19c0.15-0.11,0.4-0.23,0.54-0.26c0.15-0.14,0.36-0.17,0.55-0.17
	c0.03,0,0.05,0,0.09,0c0.13,0,0.26,0.01,0.34,0.01c0.03,0,0.04,0,0.05,0h0.05l0.03,0.04c0.01,0.01,0.07,0.05,0.11,0.07
	c0.04,0.03,0.11,0.05,0.13,0.17c0,0.01,0,0.02,0,0.03c0,0.01,0.01,0.03,0.01,0.05c0.01,0.04,0.03,0.09,0.03,0.15
	c0,0.06-0.02,0.12-0.07,0.17l-0.05,0.05l-0.06-0.03c-0.07-0.03-0.12-0.09-0.14-0.13l-0.04-0.05c-0.04-0.06-0.08-0.09-0.1-0.1
	c-0.77,0-1.4,0.64-1.88,1.34c-0.18,0.27-0.36,0.6-0.36,0.95c0,0.07,0,0.13,0.01,0.18c0.11,0.21,0.31,0.32,0.5,0.35
	C48.9,48,49.01,48,49.11,47.99c0.09-0.01,0.17-0.02,0.23-0.06l0.04-0.03l0.05,0.02h0c0,0.01,0.03-0.01,0.07-0.02
	c0.05-0.04,0.12-0.09,0.22-0.09c0.01,0,0.03,0,0.05,0.01c0.07-0.02,0.09-0.04,0.11-0.06c0.01-0.01,0.03-0.02,0.03-0.02
	c0.03-0.05,0.06-0.07,0.09-0.09l0.08-0.08l0.02,0.02c0.02-0.02,0.05-0.04,0.08-0.04c0.01,0,0.02,0,0.02,0
	c0.02-0.01,0.03-0.03,0.05-0.03c0.01,0,0.01-0.01,0.01-0.01l0,0l0.04,0.04l0-0.03c0.03,0.01,0.04,0.01,0.05,0.01
	c0.02,0,0.01,0,0.04-0.02c0,0,0,0,0,0l-0.03-0.09l0.08-0.03h0.01c0.02-0.01,0.04-0.02,0.05-0.02c0.09-0.06,0.18-0.1,0.23-0.15
	l0.01-0.01l0.01-0.01l0.03,0.03c0.01-0.01,0.02-0.03,0.04-0.04l-0.01-0.07h0.11h0.02c0,0,0.01,0.01,0.02,0.01c0-0.01,0-0.02,0-0.03
	v0l-0.05-0.14h0.15h0.01l0.01-0.01l0.05-0.01l0.14-0.16l-0.01,0.1l0.02-0.01c0,0,0.03-0.02,0.07-0.05c0.04-0.03,0.08-0.08,0.13-0.13
	l0.03-0.03h0c0,0,0.01-0.01,0.01-0.01c0,0,0.01,0,0.01,0l0-0.26l0.18,0.22l0.14,0.17h-0.1l-0.03,0.08
	c-0.15,0.35-0.48,0.74-0.77,0.84c-0.14,0.17-0.33,0.29-0.53,0.39c-0.21,0.1-0.43,0.19-0.63,0.29c-0.05,0.01-0.13,0.05-0.21,0.07
	c-0.05,0.01-0.09,0.03-0.14,0.03c-0.01,0.02-0.03,0.05-0.1,0.06l-0.01,0H49.3l-0.02-0.02l0,0c-0.04,0.02-0.08,0.06-0.16,0.07
	c-0.01,0-0.02,0-0.02,0c-0.07,0.01-0.14,0.01-0.21,0.01C48.65,48.61,48.4,48.55,48.21,48.37 M50.14,44.97
	c-0.18,0-0.33,0.03-0.46,0.14c-0.14,0.04-0.39,0.17-0.52,0.26c-0.3,0.21-0.82,0.71-0.91,1.11l-0.01,0.04l-0.04,0.02
	c-0.08,0.05-0.14,0.16-0.18,0.31c-0.04,0.16-0.07,0.33-0.09,0.48c0,0.03-0.01,0.06-0.01,0.09c0,0.33,0.18,0.59,0.42,0.81
	c0.14,0.13,0.35,0.19,0.54,0.19c0.06,0,0.13,0,0.22-0.01h0.01c0,0,0.01,0,0.04-0.03c0.04-0.03,0.08-0.05,0.13-0.05
	c0.01,0,0.01,0,0.02,0c0.01-0.01,0.02-0.02,0.03-0.02l0.05-0.03l0.03,0.02c0.02,0,0.06-0.01,0.1-0.03c0.07-0.02,0.15-0.05,0.19-0.06
	c0.2-0.1,0.42-0.18,0.62-0.28c0.2-0.1,0.37-0.21,0.47-0.36l0.02-0.03l0.04-0.01c0.01,0,0.02-0.01,0.04-0.01l-0.09-0.06
	c-0.01-0.01-0.02-0.01-0.03-0.03c-0.04,0.02-0.07,0.04-0.1,0.06l0.02,0.08l-0.1,0.03c-0.03,0.01-0.01,0.01-0.07,0.06
	c-0.03,0.03-0.09,0.08-0.18,0.07c-0.01,0-0.02,0-0.03,0l-0.07,0.13l-0.04-0.04c-0.02,0.03-0.05,0.04-0.08,0.04
	c-0.02,0-0.03,0-0.04-0.01c-0.01,0.01-0.02,0.01-0.02,0.02c-0.01,0.01-0.03,0.03-0.05,0.05c-0.05,0.05-0.11,0.07-0.2,0.1l-0.04,0.01
	l-0.03-0.01c-0.01,0-0.01,0-0.02,0c-0.04,0-0.07,0.01-0.12,0.05c-0.03,0.02-0.08,0.06-0.17,0.06c-0.01,0-0.02,0-0.03,0
	c-0.1,0.04-0.19,0.05-0.27,0.06c-0.11,0.01-0.22,0.01-0.35,0.03c-0.27-0.03-0.52-0.18-0.68-0.48c-0.02-0.09-0.02-0.17-0.02-0.25
	c0-0.42,0.2-0.78,0.39-1.06c0.48-0.71,1.15-1.42,2.06-1.42c0.1,0.02,0.16,0.08,0.2,0.13c0-0.01,0-0.03,0-0.05
	c-0.01-0.01-0.02-0.02-0.03-0.03c-0.02-0.02-0.07-0.04-0.12-0.09h-0.01c-0.1,0-0.22-0.01-0.34-0.01
	C50.2,44.96,50.17,44.96,50.14,44.97 M51,47.47c0.11-0.07,0.24-0.2,0.35-0.34c-0.01,0.01-0.02,0.02-0.04,0.03
	c-0.01,0-0.02,0.01-0.04,0.02c-0.02,0.02-0.03,0.02-0.04,0.04l-0.06,0.06l-0.01,0l-0.01,0l-0.05,0.06h-0.04l0,0l-0.03,0.03
	c-0.02,0.01-0.03,0.02-0.06,0.02h-0.01L51,47.47z M51.39,47.07c0.01-0.01,0.02-0.03,0.03-0.04c-0.01,0.01-0.01,0.01-0.01,0.01
	C51.4,47.04,51.4,47.05,51.39,47.07 M51.68,46.82L51.68,46.82L51.68,46.82 M50.93,45.08L50.93,45.08L50.93,45.08z M51.07,47.34
	L51.07,47.34L51.07,47.34L51.07,47.34z M51.07,47.34L51.07,47.34L51.07,47.34L51.07,47.34z"/>
<path class="st0" d="M55.89,45.96c0.04,0.96-0.35,1.51-1.03,1.88c-0.14,0.03-0.29,0.1-0.43,0.12c-0.15,0.02-0.31,0-0.4-0.16
	c-0.39-0.64,0.01-1.62,0.39-2.23c0.14-0.12,0.36-0.16,0.51-0.07c-0.09,0-0.12,0-0.15,0c-0.03,0-0.05,0-0.08,0.01l-0.02,0.02
	c0.19,0.01,0.42-0.01,0.63,0.04C55.54,45.6,55.76,45.7,55.89,45.96 M56.18,46.01c-0.05-0.32-0.17-0.48-0.33-0.58
	c-0.09-0.05-0.18-0.08-0.28-0.11c-0.1-0.03-0.21-0.04-0.33-0.08c0-0.01,0.01-0.02,0.01-0.03v0.01c-0.06,0-0.09,0.05-0.14,0
	l-0.01-0.01c-0.12,0.05-0.19,0.05-0.26,0.05c-0.05,0-0.09-0.01-0.13,0c-0.04,0-0.09,0-0.14,0.02c0-0.05,0.02-0.07,0.02-0.08v-0.04
	v-0.03c0-0.03,0-0.06-0.02-0.07c-0.07-0.02-0.1-0.01-0.13,0.02c-0.01,0.01-0.02,0.01-0.03,0.01c-0.03,0.02-0.07,0.03-0.11,0.02
	c-0.32,0.37-0.49,0.83-0.66,1.3c-0.14,0.55-0.12,1.29,0.26,1.74c0.32,0.37,0.84,0.19,1.16,0.06c0.04-0.03,0.18-0.11,0.23-0.15
	c0.13-0.07,0.2-0.14,0.25-0.22c0.05-0.09,0.09-0.17,0.15-0.27c0.05,0.03,0.05,0.03,0.06,0.01c0.01-0.01,0.01-0.03,0.01-0.06v-0.06
	c0-0.1,0.01-0.18,0.09-0.1c0-0.04,0.02-0.07,0.05-0.1c0.05-0.06,0.11-0.06,0.04-0.16c0.13-0.11,0.18-0.28,0.21-0.47
	C56.19,46.44,56.18,46.22,56.18,46.01"/>
<path class="st0" d="M53.83,48.22c-0.27-0.31-0.37-0.74-0.37-1.15c0-0.24,0.03-0.47,0.09-0.69c0.17-0.47,0.35-0.95,0.67-1.33
	l0.03-0.03l0.04,0c0.02,0,0.02,0,0.03,0h0.01c0.02,0,0.02,0,0.03-0.01h0.01c0.02-0.02,0.08-0.06,0.14-0.06
	c0.03,0,0.06,0.01,0.09,0.02c0.12,0.07,0.08,0.14,0.08,0.17v0.02c0.03-0.01,0.04-0.01,0.06-0.01c0.04,0,0.07,0.01,0.09,0
	c0.07,0,0.12,0,0.23-0.04l0.05-0.02l0.05,0.03l0.01,0.01c0.01-0.01,0.04-0.02,0.08-0.02v0.08h0.01l0.02-0.06
	c0.11,0.04,0.23,0.05,0.34,0.09c0.1,0.03,0.2,0.06,0.3,0.12c0.19,0.11,0.33,0.31,0.38,0.65l-0.1,0.02h0.1v0.21
	c0,0.14-0.01,0.28-0.02,0.42c-0.02,0.18-0.07,0.35-0.18,0.48c0,0.01,0.01,0.03,0.01,0.05c-0.02,0.13-0.09,0.13-0.1,0.15
	c-0.02,0.03-0.02,0.04-0.02,0.04v0.24l-0.09-0.09v0.01c0,0.02,0,0.06-0.03,0.12c-0.01-0.01-0.01,0.04-0.09,0.05
	c-0.03,0.07-0.06,0.13-0.11,0.2c-0.06,0.08-0.15,0.18-0.28,0.25c-0.06,0.03-0.2,0.12-0.25,0.15c-0.19,0.08-0.44,0.17-0.69,0.17
	h-0.01C54.2,48.48,53.99,48.41,53.83,48.22 M53.74,46.45c-0.05,0.19-0.08,0.41-0.08,0.63c0,0.38,0.09,0.76,0.32,1.01
	c0.12,0.14,0.27,0.19,0.44,0.19c0.21,0,0.44-0.08,0.6-0.15c0.04-0.03,0.17-0.11,0.25-0.16c0.11-0.06,0.16-0.11,0.21-0.18
	c0.05-0.07,0.09-0.16,0.15-0.27l0.05-0.09l0,0c0-0.02,0-0.05,0.01-0.08c0-0.03,0.03-0.12,0.13-0.13c0.01-0.01,0.02-0.03,0.03-0.04
	c0.01-0.01,0.02-0.02,0.03-0.03l-0.05-0.08l0.07-0.06c0.1-0.09,0.15-0.22,0.17-0.41c0.02-0.12,0.02-0.26,0.02-0.4v-0.2
	c-0.05-0.3-0.15-0.42-0.28-0.5c-0.07-0.04-0.16-0.07-0.26-0.1c-0.08-0.03-0.2-0.04-0.33-0.09c-0.01,0.01-0.03,0.01-0.06,0.01
	c-0.02,0-0.05,0-0.07-0.02c-0.1,0.03-0.17,0.04-0.23,0.04c0.04,0.01,0.08,0.03,0.11,0.05l0.02,0.01c0.11,0.01,0.23,0.01,0.34,0.04
	c0.24,0.04,0.51,0.16,0.65,0.45l-0.09,0.05l0.1,0c0.01,0.05,0.01,0.1,0.01,0.14c0,0.9-0.42,1.47-1.11,1.84
	c-0.11,0.02-0.27,0.09-0.44,0.12c-0.04,0-0.07,0.01-0.11,0.01c-0.14,0-0.3-0.06-0.39-0.22c-0.12-0.21-0.17-0.44-0.17-0.67
	c0-0.59,0.29-1.22,0.58-1.68c0.03-0.03,0.08-0.06,0.11-0.08v-0.13c-0.01-0.04,0.01-0.08,0.02-0.12l-0.01,0.01
	c-0.04,0.03-0.08,0.04-0.12,0.04C54.06,45.56,53.9,46,53.74,46.45 M54.5,45.62c-0.27,0.42-0.54,1.03-0.54,1.55
	c0,0.21,0.05,0.4,0.15,0.57c0.06,0.09,0.12,0.12,0.22,0.12c0.03,0,0.05,0,0.08-0.01c0.13-0.02,0.28-0.09,0.4-0.11
	c0.62-0.35,0.97-0.81,0.98-1.66c0-0.03,0-0.07-0.01-0.11c-0.11-0.21-0.29-0.29-0.5-0.33c-0.2-0.04-0.42-0.03-0.62-0.04l-0.16-0.01
	C54.51,45.61,54.5,45.61,54.5,45.62"/>
<path class="st0" d="M62.84,46.57c-0.09,0.52-0.16,1.06-0.13,1.62c0.06-0.02,0.09,0.02,0.11,0.06c0.03,0.05,0.04,0.1,0.05,0.15
	c0.03,0.13-0.03,0.17-0.1,0.17c-0.07,0.01-0.15-0.02-0.23-0.04c-0.15-0.23-0.18-0.49-0.17-0.76c0.01-0.28,0.05-0.56,0.05-0.84
	c0.03-0.09,0.05-0.22,0.06-0.35c0.02-0.13,0.04-0.27,0.06-0.39c0.05-0.24,0.1-0.51,0.16-0.78c-0.1,0.1-0.2,0.29-0.26,0.46
	c0.05-0.02,0.07-0.02,0.07-0.02c0.01,0.01-0.01,0.02-0.02,0.03c-0.02,0.02-0.03,0.03-0.04,0.05c-0.01,0.03,0,0.04,0.02,0.04
	c-0.1,0.19-0.17,0.34-0.24,0.5c-0.08,0.16-0.17,0.31-0.31,0.5c-0.29,0.37-0.63,0.69-1.03,0.79c-0.03-0.04-0.13-0.11-0.16,0
	c-0.42-0.06-0.62-0.5-0.76-0.9c-0.05-0.15-0.09-0.3-0.13-0.45c-0.26,0.57-0.53,1.29-0.79,1.93c-0.02,0.05-0.05,0.07-0.07,0.07
	c-0.03,0.01-0.06,0.01-0.1,0.02c-0.03-0.03-0.07-0.03-0.1-0.05c-0.04-0.02-0.06-0.04-0.07-0.13c0.15-0.44,0.32-0.86,0.51-1.3
	c0.18-0.42,0.35-0.86,0.45-1.3c0.01-0.13-0.07-0.25-0.12-0.35c-0.05-0.1-0.07-0.18,0.03-0.23c0.14-0.03,0.22,0.05,0.27,0.16
	c0.03,0.06,0.05,0.13,0.07,0.19c0.02,0.06,0.05,0.12,0.08,0.16c0.15,0.62,0.12,1.36,0.63,1.79c0.43,0.02,0.8-0.35,1.04-0.69
	c0.04-0.03,0.1-0.1,0.16-0.19c0.06-0.09,0.12-0.18,0.19-0.25c0.04-0.03,0.04-0.08,0.03-0.12c-0.01-0.01-0.01-0.01-0.01-0.01
	s-0.01,0.01,0,0.03c0.01,0.02,0.03,0.06,0.04,0.08c0-0.14,0.04-0.17,0.12-0.24c0.05-0.06,0.12-0.11,0.12-0.24
	c0.02-0.07,0.03-0.09,0.05-0.09c0.01-0.01,0.02,0,0.03,0.01l0,0.01c0.01,0.01,0.01,0.01,0.03,0.01c0.02-0.01,0.02-0.05,0.04-0.11
	c-0.01-0.01-0.02-0.01-0.01-0.02h0.02c0.01-0.01,0.01-0.01,0.02-0.01c-0.02,0.04-0.05,0.07-0.08,0.11c-0.03,0.06-0.05,0.12-0.01,0.2
	c0.05-0.09,0.06-0.12,0.08-0.14c0.02-0.03,0.04-0.05,0.11-0.16c-0.04-0.03-0.02-0.03,0.01-0.05c0.03-0.02,0.08-0.04,0.08-0.09
	c0.05-0.13,0.06-0.26,0.08-0.4c0.03-0.11,0.07-0.21,0.16-0.23c0.04,0.04,0.08,0.06,0.11,0.09c0.02,0.03,0.05,0.06,0.08,0.11
	C63.04,45.51,62.92,46.03,62.84,46.57"/>
<path class="st0" d="M62.53,48.61l-0.07-0.04c-0.14-0.22-0.19-0.46-0.19-0.7c0-0.04,0-0.08,0-0.12c0.01-0.27,0.05-0.54,0.05-0.78
	c0-0.02,0-0.04,0.01-0.08c0.02-0.08,0.04-0.21,0.05-0.34c0.02-0.09,0.03-0.18,0.04-0.27c-0.04,0.07-0.06,0.14-0.1,0.21
	c-0.08,0.17-0.17,0.32-0.32,0.52c-0.29,0.38-0.65,0.71-1.08,0.82l-0.1-0.04c-0.02,0.03-0.06,0.04-0.1,0.04
	c-0.49-0.07-0.7-0.57-0.84-0.97c-0.02-0.06-0.04-0.13-0.06-0.19c-0.22,0.52-0.45,1.12-0.67,1.67c-0.02,0.08-0.09,0.14-0.14,0.15
	s-0.08,0.01-0.1,0.01l-0.08-0.01c-0.02-0.01-0.05-0.02-0.08-0.04c-0.08-0.03-0.12-0.11-0.12-0.25c0.15-0.44,0.33-0.87,0.51-1.3
	c0.17-0.42,0.34-0.85,0.44-1.27v-0.01c0-0.08-0.06-0.19-0.11-0.29c-0.02-0.05-0.05-0.1-0.05-0.17c-0.01-0.08,0.05-0.16,0.15-0.19
	c0.03-0.01,0.05-0.01,0.08-0.01c0.16,0,0.25,0.12,0.3,0.23c0.03,0.07,0.05,0.14,0.07,0.2c0.02,0.05,0.04,0.1,0.08,0.17
	c0.15,0.63,0.14,1.33,0.57,1.71c0.35,0,0.7-0.33,0.95-0.67c0.02-0.01,0.08-0.08,0.14-0.17c0.06-0.08,0.11-0.16,0.19-0.26
	c0,0,0,0,0-0.01c-0.01-0.02-0.01-0.05-0.01-0.05c0-0.03,0.01-0.06,0.02-0.06c0.01-0.03,0.04-0.05,0.07-0.05h0.01
	c0.03-0.04,0.06-0.07,0.1-0.1c0.06-0.06,0.08-0.07,0.09-0.2c0.02-0.05,0.02-0.1,0.08-0.14c0.01-0.01,0.02-0.03,0.06-0.03
	c0-0.01,0-0.03,0.01-0.05c0.03-0.03,0.05-0.05,0.09-0.05c0.01-0.01,0.03-0.01,0.04-0.01c0.02-0.02,0.04-0.02,0.04-0.03
	c0.01-0.01,0.02-0.01,0.02-0.02c0,0,0.01-0.01,0.01-0.01l-0.01-0.01c0.04-0.1,0.05-0.24,0.08-0.38c0.03-0.11,0.07-0.27,0.24-0.3
	L63,44.71c0.04,0.03,0.07,0.05,0.11,0.09c0.03,0.04,0.05,0.07,0.09,0.12l0.02,0.07c-0.08,0.54-0.2,1.06-0.28,1.59
	c-0.08,0.43-0.13,0.87-0.13,1.33c0,0.06,0,0.12,0.01,0.18c0.05,0.02,0.09,0.07,0.1,0.1c0.04,0.06,0.05,0.13,0.07,0.19
	c0,0.02,0.01,0.05,0.01,0.07c0,0.13-0.12,0.21-0.2,0.21h-0.03C62.66,48.66,62.59,48.63,62.53,48.61 M62.75,48.46c0,0,0.01,0,0.02,0
	l0-0.01v-0.02c-0.01-0.05-0.03-0.1-0.04-0.13l0-0.01l0,0c-0.03,0.01-0.06,0-0.08-0.02c-0.03-0.02-0.04-0.04-0.04-0.08
	C62.6,48.1,62.6,48,62.6,47.91c0-0.47,0.06-0.92,0.13-1.36c0.09-0.53,0.2-1.03,0.28-1.55c-0.02-0.03-0.03-0.05-0.04-0.06
	c-0.01-0.01-0.03-0.02-0.05-0.04c-0.02,0.02-0.03,0.06-0.05,0.13c-0.02,0.11-0.03,0.22-0.06,0.32c0.01,0.02,0.01,0.04,0.01,0.06
	c-0.06,0.27-0.11,0.53-0.16,0.78c-0.02,0.11-0.04,0.25-0.06,0.38c-0.01,0.14-0.03,0.27-0.06,0.35v0.05c0,0.27-0.04,0.54-0.05,0.79
	c0,0.04-0.01,0.08-0.01,0.11c0,0.21,0.03,0.39,0.13,0.56C62.67,48.44,62.73,48.46,62.75,48.46 M59.64,45.16L59.64,45.16
	c-0.01,0.01,0,0.04,0.02,0.09c0.04,0.09,0.12,0.21,0.13,0.38c0,0,0,0.01,0,0.04c-0.11,0.45-0.27,0.89-0.46,1.32
	c-0.18,0.43-0.36,0.86-0.5,1.24c0,0.05,0.02,0.04,0.02,0.06c0.01,0,0.03,0.01,0.07,0.03c0.02,0,0.05,0,0.05-0.01
	c0.01,0,0,0,0.01-0.02c0.25-0.64,0.52-1.36,0.79-1.93c0.02-0.04,0.06-0.06,0.1-0.06c0.04,0,0.08,0.03,0.09,0.08
	c0.04,0.15,0.08,0.3,0.13,0.45c0.13,0.37,0.31,0.74,0.61,0.82c0.03-0.03,0.08-0.06,0.11-0.05c0.06,0,0.1,0.03,0.13,0.05
	c0.34-0.1,0.65-0.39,0.91-0.73c0.14-0.19,0.22-0.34,0.3-0.49c0.07-0.14,0.13-0.28,0.21-0.44v0c-0.03,0.04-0.06,0.07-0.08,0.09
	c-0.08,0.08-0.07,0.04-0.08,0.16c0,0.05-0.03,0.08-0.07,0.1c-0.01,0-0.01,0-0.02,0c-0.06,0.06-0.11,0.15-0.17,0.23
	c-0.07,0.09-0.12,0.16-0.16,0.19c-0.25,0.34-0.62,0.73-1.1,0.73h-0.03l-0.06-0.02c-0.55-0.47-0.51-1.25-0.65-1.82
	c-0.03-0.05-0.06-0.11-0.09-0.19c-0.02-0.06-0.04-0.12-0.07-0.17c-0.04-0.09-0.07-0.11-0.12-0.11c0,0-0.01,0-0.01,0
	C59.65,45.15,59.64,45.16,59.64,45.16"/>
<path class="st0" d="M69.61,46.57c-0.09,0.52-0.15,1.06-0.13,1.62c0.06-0.02,0.09,0.02,0.11,0.06c0.03,0.05,0.04,0.1,0.06,0.15
	c0.02,0.13-0.03,0.17-0.1,0.17c-0.07,0.01-0.15-0.02-0.23-0.04c-0.15-0.23-0.18-0.49-0.17-0.76c0.01-0.28,0.06-0.56,0.05-0.84
	c0.03-0.09,0.05-0.22,0.06-0.35c0.02-0.13,0.04-0.27,0.07-0.39c0.05-0.24,0.1-0.51,0.16-0.78c-0.1,0.1-0.2,0.29-0.26,0.46
	c0.06-0.02,0.07-0.02,0.07-0.02c0.01,0.01-0.01,0.02-0.02,0.03c-0.01,0.02-0.03,0.03-0.04,0.05c-0.01,0.03,0,0.04,0.02,0.04
	c-0.1,0.19-0.17,0.34-0.24,0.5c-0.08,0.16-0.17,0.31-0.3,0.5c-0.29,0.37-0.63,0.69-1.03,0.79c-0.03-0.04-0.13-0.11-0.16,0
	c-0.42-0.06-0.62-0.5-0.76-0.9c-0.05-0.15-0.09-0.3-0.13-0.45c-0.27,0.57-0.54,1.29-0.79,1.93c-0.02,0.05-0.05,0.07-0.08,0.07
	c-0.03,0.01-0.06,0.01-0.1,0.02c-0.03-0.03-0.07-0.03-0.1-0.05c-0.03-0.02-0.06-0.04-0.07-0.13c0.15-0.44,0.33-0.86,0.51-1.3
	c0.18-0.42,0.35-0.86,0.45-1.3c0.01-0.13-0.07-0.25-0.12-0.35c-0.05-0.1-0.07-0.18,0.03-0.23c0.14-0.03,0.22,0.05,0.27,0.16
	c0.03,0.06,0.05,0.13,0.07,0.19c0.02,0.06,0.05,0.12,0.08,0.16c0.15,0.62,0.12,1.36,0.63,1.79c0.43,0.02,0.8-0.35,1.04-0.69
	c0.04-0.03,0.09-0.1,0.16-0.19c0.06-0.09,0.12-0.18,0.19-0.25c0.03-0.03,0.04-0.08,0.03-0.12c0-0.01-0.02-0.01-0.02-0.01
	s0,0.01,0,0.03c0.01,0.02,0.03,0.06,0.04,0.08c0-0.14,0.03-0.17,0.12-0.24c0.05-0.06,0.12-0.11,0.12-0.24
	c0.02-0.07,0.03-0.09,0.05-0.09c0.01-0.01,0.02,0,0.03,0.01l0.01,0.01c0.01,0.01,0.02,0.01,0.03,0.01c0.02-0.01,0.02-0.05,0.04-0.11
	c-0.01-0.01-0.01-0.01-0.01-0.02h0.01c0.01-0.01,0.02-0.01,0.02-0.01c-0.02,0.04-0.05,0.07-0.08,0.11c-0.04,0.06-0.06,0.12-0.02,0.2
	c0.06-0.09,0.06-0.12,0.08-0.14c0.02-0.03,0.03-0.05,0.1-0.16c-0.03-0.03-0.01-0.03,0.01-0.05c0.03-0.02,0.08-0.04,0.08-0.09
	c0.05-0.13,0.06-0.26,0.08-0.4c0.03-0.11,0.07-0.21,0.16-0.23c0.04,0.04,0.08,0.06,0.11,0.09c0.03,0.03,0.05,0.06,0.08,0.11
	C69.82,45.51,69.7,46.03,69.61,46.57"/>
<path class="st0" d="M69.31,48.61l-0.07-0.04c-0.14-0.22-0.18-0.46-0.18-0.7c0-0.04,0-0.08,0-0.12c0.01-0.27,0.05-0.53,0.05-0.78
	c0-0.02,0-0.04,0-0.08c0.03-0.08,0.05-0.21,0.06-0.34c0.02-0.09,0.02-0.18,0.04-0.27c-0.03,0.07-0.07,0.14-0.1,0.21
	c-0.08,0.16-0.17,0.32-0.32,0.52c-0.29,0.38-0.65,0.71-1.09,0.82l-0.1-0.04c-0.02,0.03-0.06,0.05-0.09,0.04
	c-0.49-0.07-0.7-0.57-0.84-0.97c-0.02-0.06-0.04-0.13-0.06-0.19c-0.23,0.52-0.46,1.12-0.67,1.67c-0.03,0.08-0.1,0.14-0.15,0.15
	c-0.05,0.01-0.08,0.01-0.1,0.01l-0.08-0.01c-0.01-0.01-0.04-0.02-0.08-0.04c-0.08-0.03-0.11-0.11-0.13-0.25
	c0.15-0.44,0.33-0.87,0.51-1.3c0.18-0.42,0.34-0.85,0.44-1.27v-0.01c0-0.08-0.06-0.19-0.11-0.29c-0.02-0.05-0.05-0.1-0.05-0.18
	c-0.01-0.07,0.05-0.16,0.14-0.19c0.03-0.01,0.06-0.01,0.09-0.01c0.15,0,0.25,0.12,0.3,0.23c0.03,0.07,0.05,0.13,0.07,0.2
	c0.02,0.05,0.04,0.1,0.08,0.17c0.15,0.63,0.14,1.33,0.57,1.71c0.35,0,0.7-0.33,0.95-0.67c0.02-0.01,0.08-0.08,0.14-0.17
	c0.06-0.08,0.11-0.16,0.19-0.26c-0.01-0.02-0.01-0.05-0.01-0.05c0-0.04,0.02-0.06,0.02-0.07C68.77,46.02,68.8,46,68.82,46h0.01
	c0.03-0.04,0.06-0.07,0.09-0.1c0.06-0.06,0.09-0.07,0.09-0.2c0.03-0.05,0.01-0.1,0.08-0.14c0.01-0.01,0.02-0.03,0.07-0.03
	c0-0.01,0.01-0.03,0.01-0.05c0.02-0.03,0.05-0.04,0.08-0.05l0.01-0.01c0.01,0,0.03,0,0.04,0c0.02-0.02,0.04-0.02,0.04-0.03
	c0.02-0.01,0.02-0.02,0.03-0.02c0,0,0.01,0,0.01-0.01l-0.01-0.01c0.04-0.1,0.05-0.24,0.08-0.38c0.03-0.11,0.07-0.27,0.24-0.3
	l0.08,0.03c0.04,0.03,0.07,0.05,0.11,0.09c0.03,0.04,0.05,0.07,0.09,0.12L70,44.99c-0.08,0.54-0.2,1.06-0.29,1.59
	c-0.08,0.43-0.13,0.87-0.13,1.33c0,0.06,0,0.13,0,0.19c0.06,0.02,0.09,0.07,0.1,0.1c0.04,0.06,0.05,0.13,0.07,0.19
	c0.01,0.02,0.01,0.05,0.01,0.07c0,0.12-0.11,0.21-0.19,0.21h-0.03C69.44,48.66,69.36,48.63,69.31,48.61 M69.53,48.46
	c0,0,0.01,0,0.03,0v-0.01v-0.02c-0.02-0.05-0.03-0.1-0.05-0.13l0-0.01l0,0c-0.03,0.01-0.06,0-0.09-0.02
	c-0.02-0.02-0.04-0.04-0.04-0.07c-0.01-0.1-0.01-0.2-0.01-0.29c0-0.47,0.06-0.92,0.13-1.36c0.09-0.53,0.2-1.03,0.28-1.55
	c-0.02-0.03-0.03-0.05-0.04-0.06c-0.01-0.01-0.04-0.02-0.06-0.04c-0.01,0.02-0.03,0.06-0.04,0.13c-0.02,0.1-0.03,0.22-0.06,0.32
	c0.01,0.02,0.01,0.04,0.01,0.07c-0.06,0.27-0.11,0.53-0.16,0.78c-0.02,0.11-0.04,0.25-0.06,0.38c-0.01,0.14-0.03,0.27-0.06,0.34
	v0.06c0,0.27-0.04,0.53-0.05,0.79c0,0.04,0,0.07,0,0.11c0,0.21,0.04,0.39,0.13,0.56C69.45,48.44,69.5,48.46,69.53,48.46
	 M66.42,45.16L66.42,45.16c-0.01,0.01,0,0.04,0.02,0.09c0.04,0.09,0.12,0.21,0.13,0.37c0,0,0,0.01,0,0.04
	c-0.11,0.45-0.27,0.89-0.46,1.32c-0.18,0.43-0.36,0.86-0.5,1.24c0,0.05,0.01,0.05,0.03,0.06c0,0,0.03,0.01,0.06,0.03
	c0.03,0,0.05,0,0.06-0.01c0.01,0,0,0,0.01-0.02c0.25-0.64,0.52-1.36,0.79-1.93c0.02-0.04,0.06-0.06,0.1-0.06
	c0.05,0,0.08,0.03,0.09,0.08c0.04,0.15,0.08,0.3,0.13,0.44c0.12,0.37,0.31,0.74,0.61,0.82c0.03-0.03,0.08-0.06,0.11-0.05
	c0.06,0,0.1,0.03,0.13,0.05c0.34-0.1,0.65-0.39,0.91-0.73c0.14-0.19,0.23-0.33,0.3-0.49c0.07-0.14,0.13-0.28,0.21-0.44c0,0,0,0,0,0
	c-0.03,0.04-0.06,0.07-0.08,0.09c-0.08,0.08-0.07,0.04-0.08,0.16c0,0.05-0.03,0.08-0.07,0.1c0,0-0.01,0-0.01,0
	c-0.06,0.06-0.11,0.15-0.17,0.23c-0.07,0.09-0.12,0.16-0.16,0.19c-0.25,0.34-0.62,0.73-1.1,0.73h-0.02l-0.07-0.02
	c-0.55-0.47-0.51-1.25-0.65-1.82c-0.03-0.05-0.06-0.11-0.09-0.18c-0.02-0.06-0.04-0.13-0.07-0.18c-0.04-0.09-0.07-0.11-0.12-0.11
	c0,0-0.01,0-0.01,0C66.43,45.15,66.42,45.16,66.42,45.16"/>
<path class="st0" d="M75.6,45.54c-0.03,0.09-0.05,0.17-0.06,0.27c-0.07,0.4-0.18,0.84-0.24,1.29c-0.07,0.45-0.1,0.92-0.04,1.38
	c-0.02,0.11-0.06,0.13-0.16,0.11c-0.16-0.09-0.19-0.31-0.2-0.5c-0.01-0.07-0.01-0.14-0.01-0.2c-0.01-0.2,0.04-0.39,0.06-0.58
	c0.02-0.06,0.02-0.12,0.02-0.23c-0.1,0.09-0.16,0.17-0.23,0.26c-0.06,0.09-0.14,0.19-0.2,0.29c-0.14,0.2-0.29,0.4-0.47,0.57
	c-0.19,0.19-0.41,0.38-0.69,0.35c-0.18-0.05-0.4-0.12-0.51-0.35c-0.15-0.45-0.14-0.89-0.06-1.35c0.08-0.45,0.22-0.89,0.28-1.35
	c0.01-0.18,0.16-0.26,0.28-0.25c0.12,0.06,0.15,0.23,0.08,0.37c-0.27,0.71-0.4,1.48-0.39,2.33c0.09,0.18,0.27,0.31,0.43,0.18
	c0.32-0.15,0.55-0.49,0.79-0.78c0.08-0.08,0.14-0.16,0.23-0.22v-0.01c0.05-0.02,0.04-0.08,0.05-0.12V47
	c0.01,0.01,0.02,0.02,0.04,0.03c0.04-0.04,0.05-0.06,0.07-0.1c0.01-0.03,0.02-0.03,0.1-0.01c-0.05-0.12-0.03-0.18-0.01-0.23
	c0.02-0.03,0.05-0.07,0.06-0.09c0.01,0.01,0.01,0.01,0.05,0.11c-0.02-0.14-0.01-0.17,0-0.19c0.02-0.01,0.03-0.04,0.05-0.06
	c0.04-0.03,0.07-0.08,0.04-0.17c0.01-0.01,0.01-0.01,0.01,0.06c0.11-0.16,0.13-0.24,0.15-0.33c0.01-0.04,0.02-0.08,0.03-0.13
	c0.01-0.04,0.04-0.09,0.07-0.16c0.04-0.18,0.09-0.36,0.15-0.52c0.05-0.17,0.11-0.32,0.17-0.47h0.02c0.01,0.01,0.02,0.03,0.06,0.06
	c0-0.07,0.02-0.06,0.03-0.06c0.01,0,0.02,0.01,0.02,0.01l0.02,0.01c0.01,0,0.03,0.01,0.03,0.01C75.82,45.05,75.68,45.29,75.6,45.54"
	/>
<path class="st0" d="M75.15,48.7c-0.03,0-0.05,0-0.1-0.02c-0.22-0.13-0.24-0.39-0.25-0.57c-0.01-0.08-0.01-0.15-0.02-0.21
	c0-0.01,0-0.03,0-0.04c0-0.18,0.04-0.34,0.06-0.5c-0.01,0.01-0.02,0.02-0.03,0.03c-0.07,0.1-0.13,0.19-0.2,0.3
	c-0.14,0.19-0.29,0.4-0.48,0.59c-0.18,0.17-0.4,0.38-0.7,0.38c-0.03,0-0.05,0-0.09-0.01c-0.18-0.06-0.44-0.13-0.57-0.42
	c-0.09-0.26-0.13-0.52-0.13-0.77c0-0.21,0.02-0.42,0.06-0.62c0.08-0.46,0.22-0.9,0.28-1.34c0.01-0.23,0.2-0.35,0.36-0.35
	c0.01,0,0.02,0,0.06,0.01c0.12,0.06,0.17,0.19,0.17,0.3c0,0.07-0.02,0.14-0.04,0.19c-0.25,0.66-0.38,1.38-0.38,2.17
	c0,0.04,0,0.08-0.01,0.08c0.05,0.11,0.15,0.17,0.2,0.17c0.02,0,0.04-0.01,0.09-0.04c0.3-0.13,0.52-0.45,0.76-0.75
	c0.08-0.08,0.15-0.17,0.24-0.24l0.01,0.01l0-0.01l-0.01,0c0.01-0.01,0.01-0.03,0.01-0.04V47c0-0.05,0.03-0.08,0.07-0.1
	c0.01,0,0.03,0,0.04,0c0,0,0,0,0.01,0c0-0.01,0.02-0.05,0.06-0.08c0-0.01,0-0.02,0-0.03c0-0.06,0.02-0.12,0.04-0.15
	c0.03-0.04,0.05-0.07,0.05-0.08c0.01-0.02,0.03-0.04,0.05-0.05c0.01-0.02,0.03-0.04,0.04-0.07c0.01,0,0.01-0.02,0.05-0.05
	c0.01-0.02,0.01-0.01,0.01-0.03c0-0.01,0-0.02-0.01-0.04l0.01-0.09l0-0.01c0.01,0-0.01-0.03,0.09-0.04
	c0.04-0.08,0.05-0.12,0.05-0.18c0.01-0.05,0.02-0.1,0.04-0.15c0.01-0.05,0.04-0.1,0.06-0.15c0.04-0.18,0.09-0.37,0.15-0.54
	c0.06-0.16,0.11-0.32,0.17-0.46l0.09-0.07h0.02l0.02,0.02c0.02-0.01,0.04-0.02,0.06-0.02c0,0,0.01,0,0.04,0l0.05,0.02l0.01,0.01
	l-0.01,0.01l0.08,0.07c0.03,0.08,0.04,0.15,0.04,0.22c0,0.23-0.1,0.43-0.16,0.61c-0.03,0.08-0.05,0.17-0.06,0.25
	c-0.07,0.41-0.17,0.84-0.24,1.29c-0.04,0.29-0.07,0.57-0.07,0.86c0,0.16,0.01,0.33,0.03,0.52c0,0.1-0.09,0.2-0.19,0.2
	C75.16,48.7,75.15,48.7,75.15,48.7 M75.15,48.5L75.15,48.5C75.15,48.5,75.15,48.5,75.15,48.5c-0.02-0.17-0.03-0.35-0.03-0.52
	c0-0.3,0.03-0.6,0.07-0.89c0.07-0.46,0.18-0.9,0.25-1.3c0.02-0.1,0.04-0.19,0.07-0.28l0,0c0.07-0.2,0.15-0.38,0.15-0.55
	c0-0.03,0-0.04,0-0.07c-0.02,0.01-0.04,0.01-0.06,0c-0.04,0.11-0.08,0.22-0.12,0.34c-0.05,0.16-0.1,0.34-0.15,0.54
	c-0.03,0.06-0.05,0.11-0.06,0.14c-0.01,0.05-0.03,0.09-0.03,0.12c-0.01,0.09-0.04,0.2-0.14,0.35c-0.01,0.07-0.05,0.12-0.08,0.15
	c-0.01,0-0.02,0.03-0.02,0.01v0.03c0,0.02,0,0.06,0,0.12c0.01,0.05-0.02,0.09-0.07,0.11c-0.02,0.01-0.05,0-0.07-0.01
	c0,0.02,0.01,0.04,0.03,0.08c0.01,0.04,0.01,0.08-0.02,0.11c-0.03,0.03-0.07,0.03-0.1,0.02c-0.01,0.03-0.03,0.06-0.06,0.08
	l-0.03,0.01c-0.01,0.03-0.02,0.07-0.07,0.1l-0.01,0.02c-0.07,0.06-0.14,0.13-0.21,0.21c-0.23,0.28-0.47,0.64-0.81,0.8
	c-0.06,0.04-0.13,0.07-0.2,0.07c-0.18-0.01-0.31-0.14-0.39-0.33c0-0.05,0-0.09,0-0.13c0-0.81,0.14-1.56,0.4-2.25
	c0.02-0.04,0.03-0.08,0.03-0.11c0-0.06-0.03-0.11-0.03-0.11c-0.08,0-0.15,0.04-0.16,0.16c-0.07,0.47-0.21,0.92-0.29,1.35
	c-0.03,0.2-0.05,0.39-0.05,0.58c0,0.24,0.03,0.47,0.11,0.7c0.08,0.19,0.26,0.24,0.42,0.3c0.03,0,0.04,0,0.06,0
	c0.2,0,0.38-0.15,0.56-0.33c0.17-0.16,0.32-0.36,0.45-0.55c0.07-0.11,0.13-0.2,0.2-0.3c0.07-0.09,0.14-0.17,0.24-0.27
	c0.03-0.03,0.07-0.03,0.11-0.02c0.04,0.01,0.06,0.05,0.06,0.09c0,0.11,0,0.18-0.01,0.25c-0.02,0.18-0.06,0.36-0.06,0.53v0.02
	c0.01,0.07,0.01,0.14,0.02,0.21c0,0.18,0.05,0.37,0.11,0.4C75.13,48.5,75.14,48.5,75.15,48.5"/>
<path class="st0" d="M82.15,46.21c0.11,0-0.06,0.06,0,0.13c-0.06,0.04,0.03,0.13-0.08,0.13c0.01,0.01,0.02,0.02,0.03,0.04
	c-0.09,0.55-0.1,1.19-0.33,1.75c-0.16,0.05-0.19,0.15-0.39,0.05c-0.77-0.49-1.22-1.46-1.83-2.17c-0.24,0.79-0.45,1.64-0.47,2.49
	c-0.03,0.02-0.06,0.08-0.06,0.04c-0.06-0.01-0.1-0.01-0.17-0.01c-0.01-0.08-0.13-0.1-0.12-0.15c0.02-0.91,0.23-1.84,0.47-2.69
	c-0.1-0.13-0.25-0.31-0.4-0.3c-0.13-0.04-0.09-0.14-0.21-0.2c0.06-0.08,0.08-0.12,0.18-0.17c0.2,0,0.34,0.16,0.5,0.28
	c0.07-0.12,0.16-0.24,0.29-0.13c0.08,0.08,0.11,0.29,0.07,0.44c0.68,0.72,1.03,1.57,1.79,2.19c0.17-0.07,0.12-0.34,0.19-0.52
	c0-0.02,0.06-0.23,0.12-0.51c0.15-0.45,0.15-0.74,0.32-1.18c-0.1,0.17,0.03-0.21,0.04-0.31c0.02-0.04-0.04-0.1-0.01-0.06
	c0.07,0.04,0.01-0.1,0.05-0.14c-0.04-0.05-0.07-0.12-0.05-0.21c0.15-0.11-0.02-0.09,0.15-0.11c-0.04,0.11,0.06-0.04,0.09,0.04
	c0.15,0.13,0.13,0.33,0.07,0.5C82.27,45.69,82.21,45.87,82.15,46.21"/>
<path class="st0" d="M78.97,48.77c-0.05-0.01-0.08-0.01-0.13-0.01h-0.09l-0.01-0.09c-0.01,0,0,0-0.02-0.01
	c-0.02-0.02-0.08-0.03-0.1-0.14c0,0,0,0,0-0.01h0c0.02-0.9,0.23-1.83,0.46-2.67c-0.08-0.1-0.18-0.2-0.26-0.22l-0.02,0.01l-0.06-0.02
	c-0.2-0.09-0.16-0.2-0.22-0.2l-0.11-0.05l0.07-0.1c0.05-0.07,0.1-0.15,0.25-0.21c0.21,0.01,0.35,0.13,0.48,0.23
	c0.05-0.06,0.11-0.11,0.21-0.13c0.06,0,0.12,0.03,0.17,0.08c0.08,0.1,0.11,0.23,0.11,0.36c0,0.04-0.01,0.08-0.01,0.11
	c0.66,0.71,1.01,1.51,1.68,2.09c0.04-0.07,0.04-0.24,0.09-0.39c0.01-0.07,0.07-0.25,0.13-0.54c0.14-0.4,0.14-0.68,0.29-1.08
	c-0.01-0.01-0.01-0.03-0.01-0.03c0-0.08,0.06-0.26,0.08-0.36v0c0-0.01-0.01-0.01-0.01-0.02c-0.01-0.01-0.01-0.03-0.01-0.05
	c0-0.03,0.01-0.05,0.03-0.07c0,0,0.01-0.01,0.01-0.01c0-0.01,0-0.02,0-0.03c-0.03-0.05-0.04-0.1-0.04-0.17c0-0.02,0-0.06,0.04-0.13
	c0.02-0.01,0.02-0.02,0.03-0.03c0.02-0.1,0.09-0.1,0.09-0.1v0c0.02-0.01,0.04-0.01,0.08-0.01l0.17-0.03l-0.02,0.06c0,0,0,0,0.01,0
	c0.02,0.01,0.03,0.02,0.02,0.02c0.11,0.09,0.16,0.22,0.16,0.34c0,0.09-0.03,0.18-0.05,0.27c-0.09,0.24-0.14,0.4-0.2,0.7
	c0.01,0.01,0.02,0.03,0.03,0.05c-0.02,0.06-0.03,0.07-0.04,0.08l0.04,0.06l-0.07,0.04c0,0,0.01,0.01,0.01,0.02
	c0,0.02-0.01,0.05-0.02,0.08l-0.01,0.01c-0.09,0.54-0.1,1.19-0.34,1.78l-0.02,0.04l-0.05,0.01c-0.08,0.02-0.14,0.1-0.28,0.1
	c-0.06,0-0.12-0.01-0.2-0.05c-0.75-0.49-1.19-1.37-1.74-2.05c-0.22,0.74-0.39,1.52-0.41,2.29v0.06l-0.05,0.03l0,0.01
	c-0.02,0.01,0,0.03-0.1,0.06C79,48.78,78.99,48.78,78.97,48.77 M78.98,48.57c0.02-0.84,0.23-1.67,0.47-2.45l0.05-0.17l0.12,0.13
	c0.63,0.73,1.07,1.68,1.8,2.14c0.05,0.02,0.09,0.03,0.11,0.03c0.03,0,0.07-0.03,0.17-0.07c0.2-0.51,0.22-1.11,0.31-1.64
	c0,0,0,0,0-0.01l-0.06-0.07c-0.03,0.14-0.07,0.29-0.12,0.46c-0.06,0.27-0.12,0.49-0.12,0.53c-0.06,0.14,0.02,0.44-0.24,0.58
	l-0.06,0.02l-0.05-0.04c-0.78-0.64-1.14-1.5-1.8-2.2l-0.04-0.04l0.01-0.05c0.01-0.04,0.01-0.08,0.01-0.12c0-0.09-0.03-0.2-0.05-0.22
	c-0.03-0.02-0.03-0.02-0.03-0.02c-0.01,0-0.06,0.03-0.1,0.12l-0.05,0.1l-0.1-0.07c-0.17-0.13-0.29-0.26-0.4-0.27
	c-0.05,0.02-0.06,0.03-0.08,0.06c0.06,0.06,0.06,0.1,0.08,0.11c0.23,0.01,0.37,0.21,0.47,0.34l0.03,0.04l-0.01,0.05
	c-0.23,0.84-0.44,1.75-0.46,2.64c0,0,0.01,0.01,0.01,0.01c0.02,0.01,0.05,0.03,0.07,0.06C78.94,48.56,78.95,48.57,78.98,48.57
	 M82.12,45.77c-0.1,0.25-0.14,0.45-0.18,0.66l0.08-0.05c0,0,0.01,0,0.01-0.01c0-0.01,0-0.03,0.01-0.05c0-0.01,0-0.01,0-0.02h-0.01
	l0.02-0.12c0.07-0.35,0.13-0.53,0.22-0.79c0.02-0.07,0.04-0.14,0.04-0.2c0-0.06-0.02-0.11-0.06-0.18c-0.01,0-0.03,0.01-0.05,0.01
	c-0.01,0-0.01,0-0.02-0.01c-0.01,0.01-0.02,0.01-0.02,0.01c-0.01,0-0.01,0.01-0.01,0.02c0,0.03,0.01,0.07,0.03,0.1l0.07,0.09
	l-0.07,0.04c0,0.01,0,0.02,0,0.04c0,0,0,0.03-0.02,0.06v0c0,0.02,0,0.04,0,0.03c-0.01,0.08-0.06,0.29-0.08,0.33L82.12,45.77z
	 M82,45.71v-0.03V45.71z"/>
<path class="st0" d="M86.92,46.61c-0.36,0.05-0.75,0.17-1.09,0.33c0.34-0.54,0.67-1.04,1.04-1.59
	C86.93,45.77,86.87,46.22,86.92,46.61 M87.65,48.38c-0.03-0.12-0.11-0.15-0.19-0.23c-0.16-0.36-0.2-0.78-0.23-1.21
	c0.03-0.06,0.03-0.07,0.11-0.08c0.1-0.02,0.26-0.03,0.26-0.09c0.11-0.16-0.06-0.14-0.13-0.16c0.05-0.09-0.16,0-0.23-0.03
	c-0.03-0.4-0.07-0.86-0.08-1.29c-0.05-0.18-0.07-0.37-0.14-0.53c-0.06-0.14-0.23-0.26-0.32-0.1c0,0.04-0.02,0.09,0.01,0.1
	c0.02,0.09,0.24,0.41-0.04,0.28c-0.55,0.6-0.92,1.44-1.31,1.93c0.09,0.16-0.13,0.05-0.14,0.23c-0.29,0.34-0.61,0.79-0.71,1.23
	c0.02,0.12,0.12,0.21,0.23,0.2c0.2-0.31,0.42-0.72,0.6-1c0.48-0.36,0.85-0.48,1.4-0.62c0.04-0.01,0.15-0.04,0.2-0.04
	c-0.01,0.2,0.03,0.38,0.06,0.56c0.11,0.37,0.13,0.96,0.54,1C87.45,48.46,87.7,48.55,87.65,48.38"/>
<path class="st0" d="M84.44,48.41c0.1-0.46,0.42-0.9,0.7-1.25c0.01-0.1,0.09-0.15,0.14-0.17l-0.02-0.04l0.04-0.05
	c0.38-0.48,0.75-1.32,1.31-1.93l0.05-0.06l0.03,0.01c-0.02-0.03-0.03-0.08-0.05-0.11c-0.03-0.03-0.03-0.07-0.03-0.09
	c0-0.05,0.01-0.07,0.02-0.12c0.03-0.08,0.12-0.13,0.2-0.13c0.15,0.01,0.24,0.12,0.3,0.24c0.08,0.18,0.1,0.38,0.15,0.57
	c0.01,0.39,0.04,0.8,0.07,1.18c0.03,0,0.07-0.01,0.11-0.01c0.02,0,0.08,0.01,0.11,0.06c0.06,0,0.15,0.02,0.18,0.16
	c0,0.05-0.02,0.1-0.04,0.1c-0.09,0.22-0.27,0.13-0.34,0.18h-0.03c0.03,0.42,0.06,0.81,0.2,1.13c0.05,0.06,0.16,0.11,0.21,0.27
	l-0.1,0.03l0.1-0.02c0,0.02,0,0.04,0,0.05c0,0.05-0.02,0.09-0.05,0.12l0.17,0.12l-0.34-0.02c-0.53-0.07-0.51-0.73-0.63-1.08
	c-0.01-0.14-0.05-0.29-0.06-0.45c-0.03,0.01-0.06,0.01-0.08,0.02c-0.55,0.13-0.89,0.24-1.33,0.57c-0.18,0.27-0.4,0.68-0.6,0.99
	l-0.03,0.05h-0.06h-0.02C84.57,48.73,84.46,48.6,84.44,48.41 M85.5,47.03c-0.02,0.14-0.13,0.14-0.14,0.15
	c-0.03,0.02-0.01,0-0.02,0.02l0,0.03l-0.02,0.03c-0.28,0.34-0.59,0.78-0.68,1.15c0.01,0.05,0.04,0.09,0.07,0.11
	c0.18-0.29,0.39-0.68,0.59-0.97c0.49-0.37,0.88-0.5,1.42-0.63c0.05-0.02,0.15-0.04,0.23-0.04h0.1l-0.01,0.11c0,0.01,0,0.02,0,0.03
	c0,0.17,0.03,0.33,0.05,0.49c0.1,0.36,0.15,0.82,0.37,0.91c0.03-0.02,0.05-0.02,0.06-0.02c0.01,0,0.02,0,0.03,0
	c-0.02-0.07-0.07-0.08-0.18-0.21c-0.18-0.38-0.21-0.81-0.23-1.28c0-0.06,0.1-0.15,0.18-0.14c0.08-0.02,0.19-0.03,0.2-0.05l0.02,0.04
	l-0.02-0.04c-0.02,0-0.04-0.01-0.07-0.01l-0.13-0.03v0c-0.02,0-0.04,0-0.06,0c-0.02,0-0.03,0-0.03,0h-0.09l-0.01-0.09
	c-0.02-0.41-0.07-0.87-0.07-1.27c-0.05-0.19-0.07-0.38-0.14-0.52c-0.03-0.07-0.11-0.12-0.12-0.12c-0.01,0,0,0,0-0.02
	c0,0.02-0.01,0.04-0.01,0.05l0.01,0.03c0,0.03,0.1,0.17,0.1,0.29c0,0.05-0.07,0.14-0.14,0.14c-0.03,0-0.05-0.01-0.07-0.01
	c-0.5,0.56-0.85,1.33-1.22,1.83C85.5,47,85.5,47.01,85.5,47.03 M87.34,46.95C87.34,46.96,87.34,46.96,87.34,46.95
	C87.34,46.95,87.34,46.95,87.34,46.95 M85.74,46.89c0.34-0.54,0.66-1.04,1.03-1.6l0.15-0.22l0.04,0.26
	c0.04,0.23,0.04,0.46,0.04,0.68v0.04c0,0.19,0,0.38,0.02,0.55l-0.1,0.01l0.1-0.01l0.01,0.1l-0.1,0.02
	c-0.35,0.05-0.73,0.17-1.06,0.32l-0.31,0.14L85.74,46.89z M86.08,46.73c0.24-0.09,0.48-0.16,0.73-0.2
	c-0.01-0.16-0.01-0.32-0.02-0.48c0-0.02,0-0.03,0-0.04c0-0.12,0-0.25-0.01-0.37C86.54,46.01,86.31,46.36,86.08,46.73"/>
<path class="st0" d="M92.71,45.54c-0.03,0.09-0.05,0.17-0.06,0.27c-0.07,0.4-0.17,0.84-0.24,1.29c-0.07,0.45-0.11,0.92-0.04,1.38
	c-0.02,0.11-0.06,0.13-0.16,0.11c-0.16-0.09-0.19-0.31-0.2-0.5c-0.01-0.07-0.01-0.14-0.01-0.2c0-0.2,0.04-0.39,0.06-0.58
	c0.02-0.06,0.02-0.12,0.02-0.23c-0.1,0.09-0.16,0.17-0.23,0.26c-0.06,0.09-0.14,0.19-0.2,0.29c-0.14,0.2-0.29,0.4-0.47,0.57
	c-0.19,0.19-0.41,0.38-0.69,0.35c-0.18-0.05-0.41-0.12-0.51-0.35c-0.15-0.45-0.14-0.89-0.06-1.35c0.08-0.45,0.22-0.89,0.29-1.35
	c0.01-0.18,0.15-0.26,0.28-0.25c0.12,0.06,0.14,0.23,0.08,0.37c-0.27,0.71-0.4,1.48-0.39,2.33c0.09,0.18,0.27,0.31,0.43,0.18
	c0.33-0.15,0.55-0.49,0.79-0.78c0.08-0.08,0.14-0.16,0.23-0.22v-0.01c0.05-0.02,0.04-0.08,0.05-0.12V47
	c0.01,0.01,0.02,0.02,0.04,0.03c0.03-0.04,0.05-0.06,0.07-0.1c0.02-0.03,0.03-0.03,0.1-0.01c-0.05-0.12-0.03-0.18-0.01-0.23
	c0.02-0.03,0.05-0.07,0.06-0.09c0.01,0.01,0.01,0.01,0.05,0.11c-0.01-0.14,0-0.17,0-0.19c0.02-0.01,0.03-0.04,0.06-0.06
	c0.03-0.03,0.07-0.08,0.03-0.17c0.01-0.01,0.01-0.01,0.02,0.06c0.11-0.16,0.13-0.24,0.15-0.33c0-0.04,0.02-0.08,0.03-0.13
	c0.01-0.04,0.03-0.09,0.07-0.16c0.04-0.18,0.09-0.36,0.15-0.52c0.05-0.17,0.11-0.32,0.17-0.47h0.01c0.01,0.01,0.02,0.03,0.06,0.06
	c0-0.07,0.02-0.06,0.03-0.06c0.01,0,0.01,0.01,0.02,0.01l0.02,0.01c0.01,0,0.03,0.01,0.03,0.01C92.93,45.05,92.79,45.29,92.71,45.54
	"/>
<path class="st0" d="M92.25,48.7c-0.02,0-0.05-0.01-0.1-0.02c-0.22-0.13-0.25-0.39-0.25-0.58c-0.01-0.07-0.01-0.14-0.01-0.21v-0.03
	c0-0.18,0.03-0.35,0.06-0.51c-0.01,0.01-0.02,0.02-0.03,0.03c-0.06,0.1-0.13,0.19-0.2,0.29c-0.14,0.19-0.29,0.4-0.48,0.59
	c-0.18,0.17-0.4,0.38-0.7,0.38c-0.03,0-0.05,0-0.09-0.01c-0.18-0.05-0.44-0.12-0.57-0.42c-0.09-0.26-0.12-0.52-0.12-0.77
	c0-0.21,0.02-0.41,0.06-0.62c0.08-0.46,0.22-0.9,0.28-1.34c0.02-0.23,0.2-0.35,0.36-0.35c0.01,0,0.02,0,0.06,0.01
	c0.12,0.06,0.17,0.19,0.17,0.3c0,0.07-0.02,0.14-0.04,0.19c-0.25,0.66-0.38,1.38-0.38,2.18c0,0.04,0,0.08-0.01,0.08
	c0.05,0.11,0.14,0.18,0.2,0.17c0.02,0,0.04-0.01,0.09-0.04c0.29-0.13,0.52-0.45,0.76-0.75c0.07-0.08,0.13-0.15,0.2-0.21v-0.03
	l0.05-0.01c0-0.01,0-0.02,0-0.03V46.7l0.13,0.17c0.01-0.02,0.03-0.04,0.04-0.05c0-0.01,0-0.02,0-0.03c0-0.06,0.02-0.11,0.05-0.15
	c0.02-0.04,0.05-0.07,0.06-0.08l0.07-0.14l0.02,0.03c0.01-0.01,0.02-0.02,0.04-0.05c0.02-0.02,0.02-0.01,0.02-0.03
	c0-0.01,0-0.02-0.01-0.04l-0.02-0.05L92,46.23c0.01,0.01,0-0.01,0.09-0.05c0.04-0.07,0.05-0.12,0.06-0.18
	c0.01-0.05,0.02-0.1,0.04-0.15c0.01-0.04,0.03-0.1,0.07-0.15c0.04-0.19,0.09-0.37,0.15-0.54c0.06-0.16,0.11-0.33,0.17-0.47
	l0.02-0.06h0.07h0.07c0.01-0.01,0.02-0.01,0.04-0.01c0,0,0.01,0,0.03,0.01l0.05,0.02l0,0.01h0.06l0.02,0.07
	c0.02,0.08,0.03,0.15,0.03,0.23c0,0.23-0.1,0.42-0.16,0.61h0c-0.02,0.08-0.04,0.16-0.06,0.25c-0.07,0.41-0.18,0.84-0.24,1.3
	c-0.04,0.28-0.07,0.57-0.07,0.86c0,0.16,0.01,0.33,0.03,0.53c-0.01,0.09-0.1,0.2-0.19,0.2H92.25z M92.25,48.51
	C92.26,48.5,92.26,48.5,92.25,48.51c-0.01-0.18-0.02-0.36-0.02-0.53c0-0.3,0.03-0.6,0.07-0.89c0.07-0.46,0.18-0.9,0.24-1.3
	c0.02-0.1,0.04-0.19,0.07-0.28c0.07-0.2,0.15-0.38,0.15-0.55v-0.04l-0.06-0.03c-0.04,0.11-0.08,0.23-0.12,0.34
	c-0.05,0.16-0.1,0.34-0.15,0.54c-0.03,0.06-0.05,0.1-0.06,0.14c-0.01,0.05-0.02,0.09-0.03,0.12c-0.01,0.09-0.04,0.2-0.15,0.35
	c-0.01,0.07-0.05,0.13-0.08,0.15c-0.01,0-0.02,0.03-0.03,0.01c0,0,0,0,0,0.03c0,0.02,0,0.06,0.01,0.12l-0.13,0.03
	c0,0-0.01,0.01-0.01,0.01c-0.01,0.02-0.01,0.02-0.01,0.04c0,0.02,0.01,0.05,0.03,0.1l0.05,0.11l0.15-0.15v0.24
	c0,0.11,0,0.17-0.02,0.25c-0.02,0.18-0.06,0.37-0.06,0.54c0,0,0,0.01,0,0.02c0.01,0.07,0.01,0.14,0.01,0.21
	c0,0.18,0.05,0.37,0.11,0.4C92.24,48.5,92.25,48.5,92.25,48.51L92.25,48.51z M90.54,48.46c0.2,0,0.38-0.15,0.56-0.32
	c0.17-0.17,0.31-0.37,0.45-0.55c0.07-0.11,0.14-0.2,0.2-0.3c0.06-0.08,0.11-0.15,0.19-0.22l-0.1-0.05
	c-0.02,0.03-0.04,0.05-0.06,0.08l-0.04,0.04c-0.01,0.01-0.02,0.03-0.03,0.05v0.01l-0.04,0.03c-0.07,0.05-0.14,0.13-0.21,0.21
	c-0.23,0.29-0.46,0.64-0.81,0.8c-0.06,0.04-0.13,0.07-0.2,0.07c-0.18,0-0.31-0.14-0.39-0.33c0-0.04,0-0.09,0-0.12
	c0-0.82,0.13-1.56,0.4-2.26c0.02-0.04,0.03-0.07,0.03-0.11c0-0.06-0.02-0.1-0.03-0.11c-0.08,0.01-0.15,0.04-0.16,0.17
	c-0.07,0.47-0.21,0.92-0.28,1.35c-0.04,0.19-0.06,0.39-0.06,0.58c0,0.24,0.03,0.47,0.11,0.7c0.08,0.19,0.26,0.24,0.41,0.29h0.02
	C90.52,48.46,90.54,48.46,90.54,48.46"/>
<path class="st0" d="M98.16,45.17c-0.15,0.08-0.4,0.14-0.54,0.08c-0.32,0.11-0.43,0.03-0.8-0.02c-0.32,0.73-0.48,1.55-0.55,2.43
	c-0.02,0.27,0.06,0.6,0.05,0.84c-0.08,0.06-0.21-0.04-0.24-0.04c-0.28-1.07,0.01-2.16,0.32-3.22c-0.54-0.06-1.1-0.29-1.59,0.06
	c-0.13-0.1,0.1-0.16,0.04-0.24c0.13-0.15,0.49-0.23,0.73-0.2c0.37-0.01,0.74,0.04,1.1,0.01c0.36,0.15,0.61,0.1,0.97,0.11
	c0.22-0.05,0.51-0.14,0.6-0.41c0,0.04,0,0.13,0.06,0.05c0.01,0,0.06-0.07,0.02-0.02c-0.01,0.1,0.04-0.02,0.05,0.02
	C98.45,44.79,98.36,45.06,98.16,45.17"/>
<path class="st0" d="M96.07,48.55h-0.06l-0.02-0.07c-0.08-0.32-0.11-0.63-0.11-0.94c0-0.75,0.19-1.49,0.4-2.22
	c-0.29-0.04-0.57-0.11-0.83-0.11c-0.21,0-0.39,0.04-0.57,0.17l-0.06,0.05l-0.06-0.05c-0.04-0.03-0.08-0.09-0.08-0.15
	c0.01-0.09,0.06-0.13,0.08-0.15l-0.02-0.03l0.05-0.06c0.16-0.18,0.46-0.24,0.71-0.25c0.03,0,0.07,0,0.09,0.01c0.03,0,0.05,0,0.09,0
	c0.25,0,0.49,0.02,0.73,0.02c0.09,0,0.18,0,0.32,0c0.22,0.09,0.39,0.1,0.59,0.1c0.08,0,0.17,0,0.27,0c0.03,0,0.05,0,0.05,0.01
	c0.22-0.05,0.46-0.13,0.53-0.35l0.09,0.01l0.02-0.03h0c0.01,0,0.01-0.01,0.02-0.02c0,0,0,0,0.01-0.01c0,0,0,0,0.01,0
	c0.03-0.02,0.08-0.01,0.11,0.02v0c0.01,0.01,0.02,0.03,0.02,0.04v0c0.02,0.02,0.04,0.04,0.04,0.04c0.01,0.05,0.02,0.1,0.02,0.15
	c0,0.2-0.1,0.42-0.3,0.53l-0.05-0.09l0.04,0.09c-0.13,0.07-0.3,0.12-0.46,0.12c-0.04,0-0.09,0-0.13-0.01
	c-0.11,0.03-0.2,0.05-0.28,0.05c-0.15,0-0.27-0.04-0.46-0.07c-0.29,0.7-0.44,1.49-0.51,2.33c0,0.03,0,0.05,0,0.08
	c0,0.22,0.05,0.47,0.05,0.69c0,0.02,0,0.04,0,0.06l0,0.05l-0.04,0.03c-0.04,0.03-0.08,0.04-0.12,0.04
	C96.17,48.61,96.1,48.56,96.07,48.55 M96.07,48.54L96.07,48.54L96.07,48.54z M96.22,48.4c0-0.19-0.05-0.43-0.05-0.66
	c0-0.03,0-0.07,0-0.1c0.07-0.88,0.23-1.71,0.55-2.46l0.03-0.07l0.07,0.01c0.25,0.03,0.39,0.08,0.51,0.08c0.07,0,0.14-0.01,0.25-0.05
	l0.03-0.01l0.04,0.01c0.02,0.01,0.05,0.02,0.09,0.01c0.11,0,0.27-0.04,0.36-0.1c0.11-0.06,0.19-0.22,0.19-0.35h-0.02h-0.01
	c-0.15,0.21-0.42,0.28-0.63,0.33c-0.02,0-0.04-0.01-0.07,0c-0.09,0-0.18,0-0.27,0c-0.21,0-0.41-0.02-0.62-0.11
	c-0.09,0-0.19,0.01-0.28,0.01c-0.25,0-0.49-0.02-0.73-0.02h-0.1c-0.02,0-0.05,0-0.08,0c-0.19,0-0.43,0.06-0.53,0.15
	c0,0,0,0.01-0.01,0.01c0.16-0.07,0.33-0.09,0.49-0.09c0.33,0,0.66,0.1,0.97,0.13l0.12,0.01l-0.03,0.12
	c-0.23,0.76-0.43,1.52-0.43,2.28c0,0.28,0.03,0.56,0.1,0.84C96.19,48.39,96.21,48.39,96.22,48.4 M94.87,45.22L94.87,45.22
	C94.87,45.22,94.87,45.22,94.87,45.22 M94.77,45.05L94.77,45.05L94.77,45.05z"/>
<path class="st0" d="M102.27,44.04c-0.28,0.21-0.76,0.42-1.23,0.49c-0.05-0.04-0.08,0.03-0.07-0.07c0.01-0.02,0.03-0.04,0-0.1
	c0,0,0.09-0.06,0.09-0.05c0.3-0.11,0.83-0.32,1.23-0.68c0.11-0.03,0.12,0.09,0.14,0.17C102.4,43.89,102.35,43.98,102.27,44.04
	 M102.36,47.95c-0.19,0.15-0.39,0.26-0.58,0.38c-0.09-0.01-0.14,0.03-0.2,0.07c-0.14,0.09-0.34,0.13-0.52,0.15
	c-0.27-0.03-0.62-0.11-0.78-0.49c-0.12-0.29-0.15-0.74-0.05-1.08c-0.04-0.06-0.1-0.04-0.16-0.09c-0.04-0.05-0.08-0.1-0.06-0.17
	c0.01-0.09,0.07-0.11,0.14-0.12c0.03-0.01,0.05-0.01,0.08-0.01c0.11-0.02,0.21-0.06,0.19-0.3c0.02-0.12,0.07-0.24,0.11-0.36
	c0.05-0.12,0.1-0.26,0.14-0.41c-0.13-0.02-0.27,0.01-0.4,0c-0.11-0.02-0.22-0.04-0.26-0.19c0.02-0.08,0.05-0.1,0.07-0.11
	c0.01-0.01,0.03-0.02,0.05-0.02c0.01-0.01,0.03-0.02,0.05-0.05c0.39-0.01,0.8-0.08,1.21-0.14c0.41-0.07,0.82-0.11,1.2-0.02
	c0.02,0.04,0.04,0.07,0.06,0.1c0.03,0.03,0.04,0.06,0.04,0.1c0.02,0.05,0.01,0.07-0.03,0.09c-0.03,0.01-0.06,0.03-0.06,0.08
	c-0.19-0.07-0.45-0.07-0.69-0.04c-0.27,0.03-0.53,0.1-0.77,0.1c-0.19,0.34-0.33,0.73-0.46,1.11c0.25,0.01,0.48-0.03,0.72-0.06
	c0.23-0.03,0.46-0.06,0.68-0.03c0.02,0.03,0.04,0.05,0.06,0.07c0.05,0.06,0.07,0.09,0.02,0.19c-0.07,0.08-0.1,0.1-0.13,0.11
	c-0.04,0.01-0.08,0.01-0.16,0.03c-0.01-0.03-0.03-0.03-0.05-0.02c-0.02,0.01-0.03,0.03-0.05,0.03c-0.47,0.02-0.73,0.08-1.2,0.09
	c-0.1,0.27-0.13,0.69-0.03,0.91c0.09,0.2,0.28,0.34,0.49,0.32c0.18-0.01,0.39-0.08,0.57-0.17c0.18-0.08,0.34-0.18,0.49-0.24
	c-0.01-0.04-0.01-0.05,0.01-0.05c0.01-0.01,0.02-0.01,0.03-0.02c0.02,0,0.03-0.01,0.05-0.01c0.07-0.08,0.13-0.12,0.21-0.17
	c0.08-0.04,0.16-0.08,0.26-0.15l0.01,0.01c0.01,0.02,0.01,0.05,0.01,0.07c0.01,0.02,0.02,0.03,0.04,0.02
	C102.65,47.68,102.52,47.82,102.36,47.95"/>
<path class="st0" d="M100.19,48.11c-0.08-0.19-0.12-0.43-0.12-0.67c0-0.14,0.01-0.28,0.04-0.41c-0.02-0.01-0.06-0.02-0.12-0.06
	c-0.03-0.04-0.09-0.11-0.09-0.2c0-0.01,0-0.04,0.01-0.05c0.01-0.14,0.15-0.21,0.21-0.2c0.04-0.01,0.08-0.01,0.08-0.01
	c0.09-0.03,0.1,0,0.11-0.15c0-0.01,0-0.03,0-0.07c0.02-0.14,0.08-0.26,0.12-0.38c0.03-0.08,0.07-0.18,0.1-0.28
	c-0.07,0-0.14,0-0.21,0.01c-0.02,0-0.04,0-0.07,0c-0.11-0.01-0.3-0.06-0.34-0.26l-0.01-0.02l0.01-0.03
	c0.02-0.08,0.06-0.14,0.11-0.17c0.02-0.01,0.04-0.02,0.02,0.01c0.04-0.05,0.06-0.05,0.06-0.05l0.03-0.03h0.04
	c0.38-0.01,0.78-0.08,1.2-0.14c0.24-0.04,0.49-0.07,0.74-0.07c0.17,0,0.34,0.02,0.5,0.06l0.05,0.01l0.02,0.05
	c0.01,0.02,0.03,0.05,0.05,0.07c0.04,0.03,0.07,0.1,0.06,0.13c0.01,0.02,0.02,0.05,0.02,0.07c0,0.08-0.07,0.13-0.1,0.14l-0.01,0
	v0.15l-0.13-0.06c-0.1-0.04-0.22-0.05-0.35-0.05c-0.1,0-0.19,0.01-0.3,0.02c-0.24,0.03-0.48,0.08-0.72,0.1
	c-0.14,0.28-0.27,0.59-0.39,0.91c0.19-0.01,0.38-0.04,0.57-0.06c0.16-0.02,0.32-0.03,0.48-0.04c0.07,0,0.15,0.01,0.23,0.02l0.03,0
	l0.02,0.03c0.03,0.03,0.04,0.05,0.06,0.07c0.03,0.03,0.06,0.09,0.06,0.15c0,0.05-0.02,0.09-0.06,0.17
	c-0.07,0.08-0.12,0.11-0.18,0.14c-0.05,0.01-0.08,0.01-0.15,0.03l-0.09,0.03l-0.01-0.02c-0.01,0-0.02,0-0.04,0.01
	c-0.43,0.02-0.7,0.07-1.12,0.09c-0.04,0.13-0.07,0.29-0.06,0.44c-0.01,0.14,0.02,0.25,0.05,0.33c0.08,0.16,0.21,0.26,0.37,0.26
	c0.01,0,0.02,0,0.03,0c0.16-0.01,0.36-0.08,0.53-0.16c0.14-0.07,0.29-0.15,0.42-0.22c0-0.02,0.02-0.05,0.04-0.06
	c0.01,0,0.02-0.01,0.03-0.01c0.02-0.01,0.04-0.02,0.07-0.03c0,0,0,0,0.01,0c0.07-0.07,0.14-0.11,0.21-0.16
	c0.08-0.04,0.15-0.08,0.24-0.14l0.06-0.04l0.06,0.04l0.03,0.04l0.12-0.06l-0.06,0.21c-0.06,0.23-0.21,0.39-0.38,0.52l-0.06-0.08
	l0.06,0.08c-0.2,0.15-0.4,0.27-0.59,0.39l-0.03,0.01h-0.04l-0.01,0c-0.04,0-0.06,0.01-0.11,0.05c-0.16,0.11-0.38,0.15-0.59,0.17
	C100.77,48.63,100.36,48.54,100.19,48.11 M100.11,46.77c0,0.02,0.01,0.03,0.03,0.06c0,0.02,0.08-0.01,0.17,0.11l0.03,0.04
	l-0.02,0.05c-0.04,0.13-0.05,0.27-0.05,0.42c0,0.21,0.04,0.43,0.1,0.59c0.13,0.33,0.43,0.39,0.68,0.42
	c0.17-0.01,0.37-0.06,0.47-0.13c0.05-0.04,0.13-0.09,0.23-0.1c0.19-0.12,0.38-0.23,0.54-0.36c0.12-0.1,0.21-0.2,0.27-0.31
	c-0.05,0.03-0.09,0.05-0.13,0.07c-0.08,0.05-0.12,0.08-0.19,0.15l-0.03,0.03h-0.02l0.01,0.02l-0.09,0.04
	c-0.13,0.06-0.3,0.16-0.48,0.24c-0.19,0.08-0.4,0.17-0.62,0.18h-0.03c-0.24,0-0.44-0.16-0.55-0.38c-0.05-0.12-0.07-0.26-0.08-0.41
	c0-0.2,0.04-0.41,0.1-0.58l0.02-0.06h0.07c0.44-0.01,0.71-0.06,1.18-0.09c0,0,0.01-0.01,0,0h0c0.02-0.02,0.06-0.04,0.09-0.04
	c0.02,0,0.04,0.01,0.06,0.02c0.05-0.01,0.09-0.01,0.08-0.01c0.02-0.02,0.03-0.02,0.08-0.06c0.02-0.04,0.02-0.06,0.02-0.06
	s0,0-0.02-0.02c-0.02-0.02-0.03-0.03-0.04-0.05c-0.05,0-0.1,0-0.16,0c-0.15,0-0.31,0.02-0.46,0.04c-0.21,0.03-0.43,0.06-0.67,0.06
	h-0.06h-0.15l0.05-0.13c0.13-0.39,0.28-0.78,0.47-1.12l0.02-0.05h0.06c0.22,0,0.49-0.07,0.76-0.1c0.11-0.02,0.21-0.03,0.32-0.03
	c0.12,0,0.23,0.01,0.33,0.04c0.02-0.03,0.05-0.04,0.05-0.04l0-0.01c-0.01-0.03,0.01-0.01-0.01-0.04c-0.02-0.01-0.04-0.04-0.06-0.08
	c-0.13-0.03-0.27-0.04-0.41-0.04c-0.23,0-0.47,0.03-0.71,0.07c-0.4,0.06-0.8,0.13-1.19,0.15c-0.02,0.01-0.03,0.02-0.06,0.04
	c-0.01,0.01-0.02,0.01-0.03,0.01c0,0,0,0-0.02,0.03c0.03,0.06,0.06,0.06,0.15,0.08c0.02,0,0.04,0,0.06,0c0.08,0,0.16-0.01,0.24-0.01
	c0.04,0,0.07,0,0.11,0.01l0.11,0.02l-0.03,0.11c-0.04,0.16-0.1,0.3-0.14,0.42c-0.04,0.12-0.09,0.24-0.11,0.32c0,0.02,0,0.04,0,0.06
	c0.01,0.23-0.17,0.33-0.3,0.34c-0.03,0-0.03,0-0.07,0.01C100.09,46.73,100.12,46.71,100.11,46.77L100.11,46.77z M102.75,47.42
	L102.75,47.42C102.75,47.42,102.75,47.42,102.75,47.42 M100.99,44.62L100.99,44.62c-0.08,0-0.12-0.12-0.12-0.13
	c0-0.01,0-0.02,0.01-0.07l0-0.01c0,0,0,0,0-0.01l-0.04-0.08l0.08-0.04l0.1-0.06c0.29-0.11,0.81-0.32,1.24-0.68
	c0.02,0,0.03-0.01,0.07-0.01c0.19,0.03,0.18,0.2,0.2,0.25l0.01,0.03l-0.01,0.03c-0.04,0.11-0.1,0.22-0.19,0.29l-0.06-0.07l0.06,0.08
	c-0.3,0.22-0.78,0.43-1.28,0.51l-0.05,0L100.99,44.62z M101.08,44.41v0.01c0.44-0.08,0.88-0.27,1.13-0.46
	c0.05-0.04,0.09-0.1,0.12-0.18c-0.01-0.02-0.01-0.03-0.01-0.05c-0.42,0.35-0.93,0.55-1.21,0.66L101.08,44.41z"/>
<path class="st0" d="M114.21,45.54c-0.03,0.09-0.05,0.17-0.07,0.27c-0.07,0.4-0.17,0.84-0.24,1.29c-0.07,0.45-0.1,0.92-0.04,1.38
	c-0.02,0.11-0.06,0.13-0.16,0.11c-0.16-0.09-0.19-0.31-0.2-0.5c-0.01-0.07-0.01-0.14-0.01-0.2c-0.01-0.2,0.04-0.39,0.06-0.58
	c0.02-0.06,0.02-0.12,0.02-0.23c-0.1,0.09-0.16,0.17-0.23,0.26c-0.06,0.09-0.13,0.19-0.19,0.29c-0.14,0.2-0.29,0.4-0.47,0.57
	c-0.19,0.19-0.41,0.38-0.69,0.35c-0.18-0.05-0.4-0.12-0.51-0.35c-0.16-0.45-0.14-0.89-0.06-1.35c0.08-0.45,0.22-0.89,0.29-1.35
	c0.01-0.18,0.15-0.26,0.28-0.25c0.12,0.06,0.15,0.23,0.08,0.37c-0.27,0.71-0.4,1.48-0.39,2.33c0.09,0.18,0.27,0.31,0.43,0.18
	c0.32-0.15,0.55-0.49,0.79-0.78c0.08-0.08,0.15-0.16,0.23-0.22v-0.01c0.05-0.02,0.04-0.08,0.05-0.12V47
	c0.01,0.01,0.02,0.02,0.04,0.03c0.03-0.04,0.05-0.06,0.07-0.1c0.02-0.03,0.02-0.03,0.1-0.01c-0.06-0.12-0.04-0.18-0.01-0.23
	c0.02-0.03,0.05-0.07,0.06-0.09c0.01,0.01,0.01,0.01,0.06,0.11c-0.01-0.14-0.01-0.17,0-0.19c0.02-0.01,0.04-0.04,0.06-0.06
	c0.03-0.03,0.07-0.08,0.03-0.17c0.01-0.01,0.01-0.01,0.01,0.06c0.11-0.16,0.13-0.24,0.15-0.33c0-0.04,0.02-0.08,0.03-0.13
	c0.01-0.04,0.03-0.09,0.07-0.16c0.04-0.18,0.09-0.36,0.15-0.52c0.05-0.17,0.11-0.32,0.17-0.47h0.02c0.01,0.01,0.02,0.03,0.06,0.06
	c0.01-0.07,0.02-0.06,0.03-0.06c0.01,0,0.02,0.01,0.02,0.01l0.01,0.01c0.02,0,0.03,0.01,0.04,0.01
	C114.42,45.05,114.29,45.29,114.21,45.54"/>
<path class="st0" d="M113.75,48.7c-0.03,0-0.05,0-0.1-0.02c-0.22-0.13-0.24-0.39-0.25-0.57c-0.01-0.08-0.01-0.15-0.01-0.21
	c0-0.01,0-0.03,0-0.05c0-0.17,0.03-0.34,0.06-0.49c-0.01,0.01-0.02,0.02-0.03,0.03c-0.06,0.1-0.13,0.2-0.2,0.3
	c-0.13,0.2-0.28,0.4-0.47,0.59c-0.18,0.17-0.4,0.38-0.7,0.38c-0.03,0-0.04-0.01-0.09-0.01c-0.17-0.06-0.44-0.12-0.57-0.42
	c-0.09-0.26-0.12-0.52-0.12-0.77c0-0.21,0.02-0.41,0.05-0.62c0.08-0.46,0.22-0.9,0.28-1.34c0.02-0.23,0.2-0.35,0.36-0.35
	c0.01,0,0.02,0,0.06,0.01c0.12,0.06,0.17,0.19,0.17,0.3c0,0.07-0.02,0.14-0.04,0.19c-0.25,0.66-0.39,1.38-0.39,2.17
	c0,0.04,0,0.08-0.01,0.08c0.05,0.11,0.14,0.18,0.2,0.17c0.02,0,0.04-0.01,0.09-0.04c0.29-0.13,0.52-0.45,0.76-0.76
	c0.07-0.07,0.13-0.14,0.21-0.21v-0.03l0.05-0.01c0-0.01,0-0.02,0-0.03V46.7l0.13,0.17c0.01-0.01,0.02-0.03,0.05-0.05
	c0-0.01,0-0.02,0-0.03c0-0.06,0.02-0.12,0.04-0.15c0.02-0.04,0.05-0.07,0.05-0.08l0.06-0.15l0.03,0.03c0,0,0,0,0,0
	c0,0,0.01-0.02,0.05-0.05c0.02-0.02,0.02-0.01,0.02-0.03v-0.01c0-0.01-0.01-0.02-0.01-0.02l-0.02-0.04l0.02-0.04l0-0.01
	c0,0,0.01-0.04,0.09-0.06c0.04-0.08,0.05-0.12,0.06-0.18c0.01-0.05,0.02-0.1,0.04-0.15c0.02-0.04,0.04-0.1,0.07-0.14
	c0.04-0.19,0.09-0.37,0.15-0.54c0.05-0.16,0.11-0.32,0.17-0.46l0.03-0.07h0.07h0.07c0.01,0,0.02-0.01,0.03-0.01
	c0,0,0.01,0,0.04,0.01l0.05,0.02l0,0.01l0,0h0.07l0.02,0.07c0.02,0.08,0.03,0.15,0.03,0.22c-0.01,0.24-0.1,0.43-0.16,0.61
	c-0.02,0.08-0.04,0.16-0.06,0.25c-0.07,0.41-0.17,0.84-0.24,1.29c-0.04,0.29-0.07,0.58-0.07,0.87c0,0.16,0.01,0.32,0.03,0.52
	c0,0.1-0.09,0.2-0.19,0.2C113.76,48.7,113.75,48.7,113.75,48.7 M113.75,48.5L113.75,48.5C113.75,48.5,113.75,48.5,113.75,48.5
	c-0.01-0.18-0.02-0.35-0.02-0.52c0-0.3,0.03-0.6,0.08-0.89c0.07-0.46,0.17-0.9,0.24-1.3c0.01-0.1,0.04-0.19,0.07-0.28
	c0.07-0.21,0.15-0.39,0.15-0.56v-0.03l-0.06-0.04c-0.04,0.11-0.08,0.23-0.12,0.34c-0.06,0.17-0.1,0.34-0.15,0.54
	c-0.03,0.06-0.05,0.11-0.06,0.14c-0.02,0.05-0.03,0.09-0.03,0.12c-0.01,0.09-0.04,0.2-0.15,0.35c-0.01,0.07-0.05,0.13-0.09,0.16
	c0,0-0.01,0.01-0.01,0.01c-0.01,0.01-0.01,0.01-0.02,0.01v0.02c0,0.02,0,0.06,0.01,0.12l-0.12,0.03c-0.01,0.01-0.01,0.02-0.01,0.02
	c-0.01,0.02-0.01,0.02-0.01,0.04c0,0.01,0,0.05,0.03,0.1l0.05,0.11l0.14-0.14v0.23c0,0.11,0,0.18-0.02,0.25
	c-0.02,0.18-0.06,0.36-0.06,0.52v0.03c0.01,0.07,0.01,0.14,0.01,0.21c0,0.18,0.05,0.37,0.11,0.4
	C113.73,48.5,113.74,48.5,113.75,48.5 M112.04,48.46c0.2,0,0.38-0.15,0.56-0.32c0.17-0.17,0.31-0.36,0.45-0.55
	c0.06-0.11,0.14-0.2,0.2-0.3c0.05-0.07,0.11-0.15,0.19-0.22l-0.1-0.04c-0.02,0.03-0.04,0.05-0.06,0.08l-0.04,0.05
	c-0.01,0.01-0.02,0.02-0.03,0.03v0.02l-0.04,0.03c-0.07,0.06-0.14,0.13-0.21,0.21c-0.23,0.29-0.47,0.64-0.81,0.8
	c-0.06,0.04-0.13,0.07-0.2,0.07c-0.18-0.01-0.31-0.14-0.39-0.33c-0.01-0.05-0.01-0.09-0.01-0.13c0-0.81,0.14-1.56,0.4-2.26
	c0.02-0.04,0.03-0.07,0.03-0.11c0-0.06-0.03-0.11-0.04-0.11c-0.08,0.01-0.15,0.04-0.16,0.17c-0.07,0.47-0.21,0.92-0.29,1.35
	c-0.03,0.2-0.05,0.39-0.05,0.58c0,0.24,0.03,0.47,0.11,0.7c0.08,0.19,0.25,0.24,0.41,0.3H112H112.04z"/>
<path class="st0" d="M118.35,45.84c0.06,0.35-0.17,0.58-0.38,0.75c-0.06,0.06-0.13,0.09-0.19,0.14c-0.04-0.01-0.05-0.01-0.06-0.01
	c-0.01,0-0.01,0-0.01,0.01l-0.02,0.01c0,0.01-0.01,0.02-0.02,0.03c-0.02,0.01-0.05,0.02-0.13,0.02c0.12-0.38,0.25-0.91,0.26-1.37
	C118.05,45.45,118.27,45.61,118.35,45.84 M119.65,47.87c-0.01,0-0.01,0.01-0.01,0.02c-0.03,0.03-0.06,0.07-0.1,0.1
	c-0.02,0.03-0.04,0.05-0.08,0.07c-0.01-0.04-0.02-0.04-0.03-0.04h-0.01l-0.01,0.02c-0.05,0.05-0.1,0.1-0.17,0.07
	c-0.47-0.22-0.95-0.51-1.28-1.05c0.12-0.05,0.19-0.1,0.26-0.16c0.07-0.06,0.14-0.13,0.2-0.19c0.24-0.25,0.24-0.58,0.22-0.94
	c-0.18-0.66-0.75-0.8-1.28-0.88c-0.17-0.02-0.35-0.04-0.49-0.07c-0.01,0-0.02,0-0.04,0.01c-0.07,0.02-0.14,0.08-0.2,0.03l0.03-0.06
	c0.11,0.05,0.06,0.1-0.02,0.13c-0.01,0.01-0.04,0.01-0.04,0.01c-0.01-0.01-0.02-0.03,0-0.04h0.01h-0.01h0.01h0.02
	c0.01,0.06,0.02,0.12-0.01,0.17c0.1,0.11,0.24,0.14,0.4,0.15c0.08,0.01,0.17,0.01,0.24,0.02c0.08,0.02,0.17,0.03,0.26,0.09
	c-0.03,0.49-0.15,0.95-0.29,1.37c-0.15,0.41-0.33,0.8-0.47,1.14c-0.03,0.13-0.1,0.21-0.16,0.32c-0.05,0.08-0.08,0.15-0.09,0.24
	c0.02,0,0.03,0.01,0.04,0.05c0.01,0.03,0.01,0.05,0.01,0.08l-0.04-0.05c0.06,0,0.1,0.03,0.16,0.04c0.04,0.01,0.08,0,0.11-0.07
	c0.27-0.48,0.5-1.02,0.72-1.54c0.08,0.08,0.08,0.13,0.08,0.17c0,0.04,0,0.08,0.02,0.11c0.09,0.08,0.19,0.18,0.28,0.28
	c0.09,0.1,0.18,0.2,0.27,0.28c0.39,0.3,0.76,0.65,1.26,0.69h-0.01c0.13-0.06,0.24-0.22,0.24-0.36c-0.02-0.03-0.03-0.07-0.01-0.11
	c0-0.01,0.01-0.02,0.01-0.02c0.01-0.01,0.01-0.01-0.01-0.01l-0.02-0.01l-0.04-0.03l0.04-0.06c0.01,0,0.01,0,0.01-0.01
	C119.64,47.81,119.66,47.84,119.65,47.87"/>
<path class="st0" d="M116.46,48.6l-0.08-0.1h-0.01v0l-0.1-0.12h0.11c0.01-0.1,0.06-0.18,0.1-0.26c0.07-0.11,0.13-0.19,0.16-0.31
	c0.15-0.35,0.32-0.73,0.47-1.14c0.13-0.39,0.25-0.82,0.28-1.28c-0.06-0.02-0.11-0.03-0.16-0.04c-0.08-0.01-0.16-0.02-0.24-0.03
	c-0.16-0.02-0.32-0.05-0.46-0.19l-0.05-0.05l0.03-0.06c0-0.01,0-0.01,0.01-0.01c-0.03-0.02-0.05-0.05-0.05-0.1
	c0-0.02,0.02-0.07,0.06-0.1l0.07-0.16l0.1,0.05c0.02,0.01,0.05,0.02,0.06,0.04c0.01,0,0.02-0.01,0.03-0.01
	c0.02-0.01,0.06-0.02,0.1-0.01c0.14,0.03,0.31,0.04,0.48,0.07c0.52,0.07,1.16,0.23,1.36,0.97c0,0.07,0.01,0.13,0.01,0.2
	c0,0.29-0.04,0.58-0.26,0.81c-0.06,0.06-0.13,0.13-0.21,0.19c-0.05,0.04-0.1,0.09-0.18,0.13c0.31,0.45,0.73,0.72,1.17,0.92h0.01
	c0,0,0.03-0.01,0.05-0.04l0.04-0.05h0.04l0.06-0.08l0.03-0.04l0.04-0.06c0.02-0.01,0.05-0.02,0.08-0.02c0.08,0,0.12,0.09,0.12,0.13
	v0.02l0,0.03l-0.02,0.03l0,0v0.01c0,0.03-0.01,0.06-0.01,0.05l-0.01,0.03h0l0,0.01l0.01,0.03v0.03c0,0.19-0.13,0.37-0.3,0.45
	l-0.04-0.06l0,0.07h-0.01c-0.55-0.04-0.93-0.41-1.32-0.71c-0.08-0.08-0.18-0.18-0.27-0.28c-0.1-0.1-0.19-0.2-0.3-0.31
	c-0.01-0.01-0.01-0.03-0.02-0.04c-0.19,0.44-0.39,0.9-0.62,1.31c-0.02,0.07-0.1,0.13-0.17,0.13c-0.01,0-0.02,0-0.04,0l-0.01,0v0.18
	L116.46,48.6z M116.66,48.43h0.02c0,0-0.01,0-0.01-0.01c0.27-0.48,0.5-1.02,0.72-1.53l0.05-0.14l0.02,0.02l0-0.01
	c0.12-0.38,0.25-0.9,0.26-1.34l0-0.11l0.11,0.01c0.27,0.04,0.52,0.21,0.62,0.49l-0.09,0.04l0.1-0.02c0.01,0.05,0.01,0.09,0.01,0.13
	c0,0.34-0.23,0.56-0.43,0.7c-0.07,0.07-0.14,0.11-0.19,0.15l-0.04,0.03l-0.04-0.02l-0.02,0.02c-0.04,0.03-0.09,0.04-0.15,0.04
	c0.07,0.08,0.08,0.17,0.08,0.2c0,0.03,0,0.05-0.01,0.05c0.09,0.08,0.18,0.18,0.28,0.28c0.1,0.1,0.19,0.2,0.26,0.27
	c0.38,0.29,0.74,0.62,1.17,0.66c0.07-0.04,0.13-0.12,0.15-0.19l0,0l-0.1,0.05l-0.01-0.02c-0.03,0.02-0.07,0.04-0.12,0.04
	c-0.03,0-0.06-0.01-0.08-0.02c-0.48-0.22-0.98-0.53-1.32-1.09l-0.06-0.1l0.11-0.04c0.11-0.04,0.16-0.09,0.23-0.15
	c0.06-0.05,0.13-0.12,0.19-0.18c0.16-0.17,0.2-0.39,0.2-0.66c0-0.06,0-0.13,0-0.17c-0.17-0.6-0.67-0.73-1.2-0.81
	c-0.17-0.03-0.34-0.04-0.48-0.07l-0.01,0c-0.02,0-0.05,0.02-0.09,0.04c-0.01,0.01-0.03,0.02-0.04,0.03c0,0.02,0,0.03-0.01,0.05
	c0.07,0.06,0.17,0.08,0.29,0.09c0.08,0.01,0.16,0.02,0.25,0.03c0.08,0.01,0.18,0.03,0.29,0.1l0.05,0.03l0,0.06
	c-0.03,0.51-0.15,0.97-0.3,1.4c-0.16,0.42-0.33,0.8-0.47,1.14c-0.05,0.15-0.12,0.24-0.18,0.35c-0.04,0.05-0.06,0.1-0.07,0.14
	c0.01,0.01,0.03,0.03,0.03,0.05C116.64,48.42,116.65,48.43,116.66,48.43 M117.71,46.62c0.01-0.01,0.02-0.01,0.02-0.01
	c0.01,0,0.02,0,0.03,0.01c0.05-0.03,0.1-0.07,0.14-0.11c0.18-0.14,0.36-0.32,0.35-0.55c0-0.02,0-0.06-0.01-0.09
	c-0.06-0.16-0.19-0.28-0.35-0.33C117.89,45.9,117.8,46.29,117.71,46.62"/>
<path class="st0" d="M123.77,45.56c-0.3,0.58-0.76,0.81-1.35,0.97c0.05-0.32,0.1-0.53,0.14-0.73c0.05-0.21,0.08-0.41,0.09-0.69
	c0.25,0.05,0.44,0.06,0.61,0.1C123.45,45.26,123.61,45.34,123.77,45.56 M124.16,47.43c-0.1-0.35-0.51-0.57-0.92-0.76
	c0.04-0.07,0.04-0.09,0.05-0.1c0.01-0.01,0.01-0.02,0.03-0.04c0.02-0.02,0.05-0.06,0.1-0.05c0.08-0.02,0.2-0.1,0.29-0.2
	c0.24-0.21,0.47-0.45,0.39-0.75c-0.25-0.46-0.67-0.64-1.15-0.72c-0.49-0.06-0.99-0.01-1.49,0.03c-0.04,0.05-0.09,0.06-0.14,0.09
	c-0.02,0.01-0.03,0.02-0.02,0.06c0.09,0.18,0.23,0.18,0.42,0.15c0.1-0.01,0.19-0.04,0.3-0.05c0.1-0.01,0.2-0.02,0.37,0.02
	c-0.27,1.12-0.53,2.17-0.7,3.34c-0.05-0.03-0.08-0.04-0.1-0.06c-0.06,0.08-0.12,0.02-0.16-0.04l-0.08,0.03
	c-0.03-0.02-0.05-0.02-0.08-0.02h-0.08c0-0.01,0.01-0.02,0.04-0.02l-0.01-0.03c-0.02-0.02-0.01-0.03,0-0.06h-0.04
	c0.02,0.04,0.03,0.06,0.02,0.1c0.08,0.04,0.15,0.06,0.23,0.08c0.05,0.12,0.15,0.09,0.24,0.08c0.06,0.04,0.11,0.06,0.16,0.06
	s0.12-0.02,0.18-0.02c0.13-0.02,0.26-0.03,0.37,0.04c0.63-0.08,1.27-0.24,1.72-0.72c0.01-0.08,0.03-0.15,0.05-0.22
	C124.18,47.59,124.18,47.51,124.16,47.43 M123.87,47.45c-0.25,0.39-0.58,0.57-0.91,0.68c-0.32,0.11-0.64,0.16-0.94,0.24
	c0.11-0.65,0.17-1.04,0.36-1.7c0.15,0.22,0.28,0.26,0.45,0.3c0.17,0.03,0.34,0.03,0.5,0.1c0.11,0.02,0.2,0.08,0.28,0.15
	C123.67,47.28,123.75,47.35,123.87,47.45"/>
<path class="st0" d="M122.33,48.68c-0.05-0.03-0.09-0.04-0.16-0.04c-0.05,0-0.1,0-0.16,0.01c-0.05,0.01-0.12,0.02-0.19,0.02
	c-0.06,0-0.13-0.02-0.19-0.05c-0.02,0.01-0.05,0.01-0.09,0.01c-0.06,0.01-0.15-0.03-0.19-0.1c-0.06-0.01-0.12-0.03-0.19-0.06h-0.14
	l0.05-0.14c0,0,0,0,0-0.01c0,0,0-0.01,0-0.01L121,48.17h0.16h0.19l-0.05,0.11c0.01,0,0.02,0,0.02,0.01l0.12-0.05l0.04,0.07
	c0,0.01,0.01,0.01,0.01,0.02l0.05-0.06l0.04,0.03c0.17-1.08,0.4-2.06,0.65-3.09c-0.04-0.01-0.07-0.01-0.1-0.01
	c-0.04,0-0.08,0-0.13,0.01c-0.1,0.01-0.2,0.04-0.31,0.05c-0.05,0.01-0.1,0.01-0.15,0.01c-0.14,0.01-0.29-0.06-0.37-0.23
	c-0.01-0.02-0.01-0.04-0.01-0.04c-0.01-0.07,0.06-0.14,0.07-0.13c0.07-0.04,0.08-0.04,0.11-0.07l0.03-0.04l0.04,0
	c0.33-0.03,0.67-0.06,1.01-0.06c0.17,0,0.33,0.01,0.5,0.03c0.5,0.07,0.96,0.28,1.24,0.79c0.01,0.05,0.02,0.09,0.02,0.14
	c-0.01,0.3-0.23,0.52-0.43,0.7c-0.11,0.11-0.23,0.21-0.35,0.23l-0.03,0.01h-0.01v0.01c-0.01,0,0,0.01-0.01,0.02
	c0.38,0.19,0.76,0.4,0.87,0.78l-0.1,0.03l0.1-0.02c0.01,0.04,0.01,0.08,0.01,0.12c0,0.05-0.01,0.11-0.02,0.16
	c-0.02,0.07-0.04,0.14-0.05,0.21l0,0.03l-0.02,0.02c-0.48,0.51-1.14,0.67-1.78,0.75l-0.03,0.01L122.33,48.68z M122.4,48.49
	c0.6-0.08,1.18-0.23,1.6-0.66c0.01-0.07,0.04-0.14,0.05-0.2c0.01-0.04,0.02-0.07,0.02-0.11c0-0.03,0-0.05-0.01-0.08
	c-0.08-0.29-0.45-0.5-0.86-0.69l-0.1-0.05l0.05-0.09c0.05-0.07,0.03-0.05,0.07-0.11l0,0c0.01,0,0.01-0.02,0.02-0.02
	c0.02-0.03,0.06-0.09,0.16-0.1c0,0,0.01,0,0.02,0c0.05-0.02,0.16-0.09,0.23-0.18c0.21-0.17,0.37-0.36,0.37-0.55
	c0-0.03-0.01-0.06,0-0.07c-0.23-0.42-0.61-0.59-1.08-0.67c-0.16-0.02-0.31-0.03-0.47-0.03c-0.31,0-0.63,0.03-0.95,0.06
	c-0.03,0.03-0.06,0.05-0.09,0.06c0.04,0.05,0.08,0.06,0.15,0.06c0.03,0,0.08-0.01,0.13-0.01c0.09-0.01,0.19-0.04,0.3-0.05
	c0.05-0.01,0.1-0.02,0.16-0.02c0.07,0,0.15,0.01,0.25,0.03l0.09,0.03l-0.03,0.1c-0.28,1.12-0.53,2.16-0.7,3.32v0
	c0.02,0,0.03,0.01,0.05,0.01c0.02,0,0.05-0.01,0.07-0.01l0.02-0.12c0.11-0.65,0.17-1.05,0.35-1.72l0.06-0.21l0,0
	c0.04-0.27,0.09-0.46,0.14-0.65c0.05-0.21,0.08-0.4,0.08-0.67l0.01-0.12l0.11,0.02c0.24,0.04,0.43,0.05,0.62,0.1
	c0.19,0.05,0.39,0.15,0.56,0.39l-0.08,0.06l0.08-0.06l0.03,0.05l-0.03,0.05c-0.32,0.61-0.8,0.85-1.39,1.02
	c0.13,0.19,0.21,0.21,0.37,0.24c0.15,0.03,0.34,0.03,0.5,0.1c0.13,0.03,0.24,0.09,0.32,0.16c0.08,0.07,0.16,0.14,0.27,0.24
	l-0.06,0.08l0.06-0.08l0.06,0.06l-0.04,0.07c-0.26,0.42-0.62,0.62-0.96,0.72c-0.3,0.1-0.6,0.15-0.87,0.22h0.05
	C122.24,48.44,122.32,48.45,122.4,48.49 M122.14,48.23c0.26-0.06,0.52-0.11,0.78-0.2c0.3-0.09,0.58-0.24,0.8-0.56
	c-0.08-0.08-0.14-0.13-0.2-0.18c-0.06-0.06-0.14-0.1-0.25-0.13c-0.14-0.06-0.3-0.06-0.48-0.09c-0.13-0.03-0.26-0.07-0.38-0.18
	C122.29,47.38,122.23,47.73,122.14,48.23 M122.66,45.82c-0.04,0.17-0.08,0.34-0.12,0.57c0.49-0.15,0.84-0.36,1.1-0.82
	c-0.13-0.16-0.25-0.21-0.41-0.26c-0.13-0.03-0.29-0.05-0.49-0.08C122.74,45.46,122.71,45.64,122.66,45.82"/>
<path class="st0" d="M128.35,46.61c-0.36,0.05-0.75,0.17-1.09,0.33c0.34-0.54,0.67-1.04,1.04-1.59
	C128.35,45.77,128.3,46.22,128.35,46.61 M129.08,48.38c-0.03-0.12-0.11-0.15-0.19-0.23c-0.17-0.36-0.2-0.78-0.23-1.21
	c0.03-0.06,0.03-0.07,0.11-0.08c0.1-0.02,0.25-0.03,0.26-0.09c0.11-0.16-0.05-0.14-0.13-0.16c0.05-0.09-0.16,0-0.23-0.03
	c-0.03-0.4-0.07-0.86-0.08-1.29c-0.05-0.18-0.07-0.37-0.15-0.53c-0.06-0.14-0.23-0.26-0.31-0.1c0,0.04-0.02,0.09,0.01,0.1
	c0.02,0.09,0.24,0.41-0.04,0.28c-0.55,0.6-0.92,1.44-1.31,1.93c0.1,0.16-0.13,0.05-0.14,0.23c-0.28,0.34-0.6,0.79-0.7,1.23
	c0.02,0.12,0.12,0.21,0.22,0.2c0.19-0.31,0.42-0.72,0.6-1c0.48-0.36,0.84-0.48,1.39-0.62c0.04-0.01,0.15-0.04,0.2-0.04
	c-0.01,0.2,0.03,0.38,0.05,0.56c0.11,0.37,0.13,0.96,0.54,1C128.88,48.46,129.12,48.55,129.08,48.38"/>
<path class="st0" d="M125.87,48.41c0.1-0.46,0.42-0.9,0.7-1.25c0.01-0.1,0.09-0.15,0.14-0.17l-0.02-0.04l0.04-0.05
	c0.38-0.48,0.75-1.32,1.32-1.94l0.05-0.06l0.03,0.01c-0.01-0.03-0.03-0.08-0.04-0.11c-0.02-0.03-0.03-0.07-0.03-0.09
	c0-0.05,0.01-0.07,0.02-0.12c0.04-0.08,0.12-0.13,0.19-0.13c0.15,0.01,0.24,0.12,0.3,0.24c0.09,0.19,0.1,0.38,0.16,0.58
	c0.01,0.39,0.04,0.8,0.07,1.18c0.03-0.01,0.07-0.01,0.11-0.01c0.01,0,0.07,0.01,0.11,0.05c0.06,0,0.15,0.02,0.19,0.16
	c0,0.06-0.03,0.1-0.04,0.1c-0.09,0.22-0.26,0.13-0.34,0.18c-0.02,0-0.03,0-0.03,0c0,0,0-0.01,0-0.02c0,0.01,0,0.01,0,0.02
	c0,0,0,0,0,0c0,0,0,0,0,0c0.03,0.42,0.06,0.81,0.2,1.12c0.05,0.06,0.16,0.1,0.21,0.28l-0.1,0.02l0.1-0.02
	c0.01,0.01,0.01,0.03,0.01,0.05c0,0.05-0.02,0.09-0.05,0.12l0.19,0.13l-0.36-0.03c-0.53-0.07-0.52-0.73-0.63-1.08
	c-0.02-0.14-0.05-0.29-0.06-0.45c-0.03,0.01-0.06,0.02-0.08,0.02c-0.55,0.13-0.89,0.24-1.33,0.57c-0.18,0.28-0.4,0.69-0.6,1
	l-0.03,0.05h-0.05h-0.02C126,48.72,125.89,48.59,125.87,48.41 M126.93,47.03c-0.02,0.14-0.14,0.14-0.14,0.15
	c-0.03,0.02-0.01,0-0.02,0.03v0.03l-0.02,0.03c-0.28,0.34-0.59,0.78-0.68,1.15c0.01,0.05,0.04,0.09,0.07,0.11
	c0.19-0.3,0.39-0.68,0.59-0.97c0.49-0.37,0.89-0.5,1.43-0.63c0.05-0.02,0.15-0.05,0.23-0.05h0.11l0,0.11c0,0.01,0,0.03,0,0.04
	c0,0.16,0.03,0.33,0.05,0.49c0.09,0.36,0.15,0.82,0.36,0.91c0.03-0.02,0.06-0.01,0.06-0.02c0.01,0,0.02,0,0.03,0
	c-0.02-0.08-0.07-0.08-0.18-0.22c-0.18-0.38-0.21-0.81-0.23-1.28c0.01-0.06,0.1-0.14,0.18-0.14c0.08-0.02,0.19-0.03,0.21-0.04
	l0.03,0.04l-0.02-0.04c-0.02,0-0.05,0-0.07-0.01l-0.13-0.02c-0.02,0-0.03,0-0.05,0c-0.01,0-0.02,0-0.03,0h-0.09l-0.01-0.09
	c-0.03-0.4-0.07-0.86-0.08-1.27c-0.05-0.19-0.07-0.37-0.14-0.52c-0.02-0.07-0.11-0.13-0.12-0.12c0,0,0,0,0-0.03
	c0,0.02,0,0.03,0,0.05l0,0.04c0,0.02,0.09,0.16,0.1,0.29c0,0.06-0.07,0.14-0.14,0.14c-0.03,0-0.05-0.01-0.07-0.01
	c-0.49,0.56-0.85,1.33-1.22,1.83C126.92,46.99,126.93,47.01,126.93,47.03 M127.17,46.89c0.34-0.54,0.67-1.04,1.04-1.6l0.14-0.22
	l0.04,0.26c0.03,0.22,0.03,0.44,0.03,0.66v0.08c0,0.19,0,0.36,0.02,0.53l-0.1,0.01l0.1-0.01l0.01,0.1l-0.09,0.02
	c-0.36,0.05-0.73,0.17-1.07,0.32l-0.31,0.14L127.17,46.89z M127.51,46.73c0.24-0.09,0.49-0.16,0.73-0.2
	c-0.02-0.15-0.02-0.31-0.02-0.46v-0.08c0-0.11,0-0.24,0-0.35C127.97,46.01,127.74,46.36,127.51,46.73 M128.77,46.95L128.77,46.95
	L128.77,46.95L128.77,46.95z"/>
<path class="st0" d="M132.19,48.11c0.06,0.07,0.13,0.08,0.17,0.18c0.01,0.09-0.06,0.14-0.11,0.2c-0.2-0.02-0.34-0.11-0.4-0.32
	c-0.08-1.05,0.31-2.18,0.51-3.13c0.04-0.14,0.35-0.17,0.37,0.04C132.52,46.16,132.14,47.07,132.19,48.11"/>
<path class="st0" d="M132.24,48.59c-0.22-0.01-0.42-0.15-0.49-0.41c-0.01-0.09-0.01-0.19-0.01-0.28c0-0.99,0.35-2.02,0.53-2.88
	c0.04-0.14,0.17-0.19,0.28-0.19c0.12-0.01,0.27,0.08,0.28,0.28c-0.2,1.03-0.55,1.88-0.54,2.82c0,0.05,0,0.1,0,0.14
	c0.04,0.03,0.12,0.08,0.17,0.21c0,0.01,0,0.02,0,0.03c-0.01,0.14-0.11,0.2-0.13,0.24l-0.04,0.04L132.24,48.59z M132.46,45.06
	c-0.19,0.88-0.53,1.88-0.52,2.84c0,0.09,0,0.18,0.01,0.25c0.05,0.15,0.12,0.21,0.26,0.24c0.03-0.04,0.05-0.06,0.05-0.07v0
	c-0.02-0.04-0.05-0.04-0.15-0.13l0.08-0.07l0.1-0.01l-0.1,0.01l-0.08,0.07l-0.02-0.02v-0.03c0-0.07-0.01-0.13-0.01-0.19
	c0-0.99,0.35-1.86,0.55-2.83c-0.01-0.06-0.03-0.06-0.09-0.07h-0.01C132.49,45.02,132.46,45.05,132.46,45.06"/>
<path class="st0" d="M138.47,46.21c0.1,0-0.06,0.06,0,0.13c-0.06,0.04,0.03,0.13-0.08,0.13c0.01,0.01,0.02,0.02,0.03,0.04
	c-0.09,0.55-0.1,1.19-0.33,1.75c-0.16,0.05-0.2,0.15-0.4,0.05c-0.77-0.49-1.21-1.46-1.83-2.17c-0.24,0.79-0.45,1.64-0.47,2.49
	c-0.03,0.02-0.07,0.08-0.07,0.04c-0.06-0.01-0.09-0.01-0.16-0.01c-0.01-0.08-0.13-0.1-0.12-0.15c0.02-0.91,0.23-1.84,0.47-2.69
	c-0.1-0.13-0.25-0.31-0.4-0.3c-0.14-0.04-0.09-0.14-0.21-0.2c0.06-0.08,0.07-0.12,0.17-0.17c0.2,0,0.34,0.16,0.5,0.28
	c0.06-0.12,0.16-0.24,0.29-0.13c0.08,0.08,0.11,0.29,0.07,0.44c0.68,0.72,1.03,1.57,1.79,2.19c0.17-0.07,0.13-0.34,0.18-0.52
	c0-0.02,0.06-0.23,0.12-0.51c0.15-0.45,0.14-0.74,0.32-1.18c-0.1,0.17,0.04-0.21,0.04-0.31c0.02-0.04-0.04-0.1-0.01-0.06
	c0.07,0.04,0.01-0.1,0.05-0.14c-0.04-0.05-0.07-0.12-0.05-0.21c0.15-0.11-0.02-0.09,0.15-0.11c-0.04,0.11,0.06-0.04,0.09,0.04
	c0.15,0.13,0.13,0.33,0.07,0.5C138.6,45.69,138.54,45.87,138.47,46.21"/>
<path class="st0" d="M135.3,48.77c-0.05-0.01-0.07-0.01-0.12-0.01h-0.09l-0.01-0.09c-0.01,0,0,0-0.02-0.01
	c-0.02-0.02-0.08-0.02-0.1-0.14c0,0,0,0,0-0.02c0,0,0,0,0-0.01c0.02-0.9,0.23-1.82,0.46-2.65c-0.08-0.1-0.18-0.2-0.25-0.22
	l-0.02,0.01l-0.06-0.02c-0.19-0.09-0.16-0.2-0.22-0.2l-0.11-0.05l0.07-0.1c0.05-0.07,0.09-0.15,0.25-0.21
	c0.21,0.01,0.35,0.13,0.48,0.23c0.05-0.06,0.11-0.11,0.21-0.13c0.06,0,0.12,0.03,0.17,0.08c0.08,0.1,0.11,0.23,0.11,0.37
	c0,0.04-0.01,0.07-0.01,0.11c0.65,0.71,1.01,1.51,1.68,2.09c0.04-0.07,0.04-0.24,0.09-0.39c0.01-0.07,0.07-0.25,0.13-0.54
	c0.14-0.4,0.14-0.68,0.28-1.09c0-0.01-0.01-0.02-0.01-0.02c0.01-0.08,0.06-0.26,0.08-0.35v0c-0.01-0.03-0.01,0.01-0.01-0.12l0,0
	l0.03-0.02v-0.01c0-0.01,0-0.02,0-0.04c-0.03-0.05-0.04-0.1-0.04-0.17c0-0.02,0-0.06,0.05-0.13c0.01-0.01,0.02-0.02,0.03-0.03
	c0.02-0.1,0.09-0.1,0.09-0.1c0.02-0.01,0.04-0.01,0.08-0.01l0.17-0.03l-0.02,0.06c0,0,0.01,0,0.01,0v0
	c0.02,0.01,0.03,0.02,0.02,0.02c0.11,0.09,0.15,0.22,0.15,0.34c0,0.09-0.02,0.19-0.05,0.27c-0.08,0.24-0.14,0.4-0.2,0.7
	c0.01,0.01,0.02,0.03,0.02,0.06c-0.01,0.07-0.03,0.08-0.04,0.09l0.04,0.05l-0.06,0.04c0,0.01,0,0.01,0,0.02c0,0.02,0,0.05-0.02,0.08
	l-0.01,0.02c-0.09,0.54-0.1,1.19-0.34,1.77l-0.02,0.04l-0.04,0.01c-0.09,0.02-0.14,0.1-0.28,0.1c-0.06,0-0.12-0.01-0.21-0.05
	c-0.75-0.49-1.18-1.37-1.74-2.05c-0.22,0.74-0.4,1.52-0.41,2.29l0,0.06l-0.05,0.03l-0.01,0.01c-0.02,0.01,0.01,0.03-0.1,0.06
	C135.33,48.78,135.31,48.78,135.3,48.77 M135.31,48.57c0.02-0.84,0.23-1.67,0.47-2.45l0.05-0.17l0.12,0.13
	c0.63,0.73,1.07,1.68,1.8,2.14c0.05,0.02,0.09,0.03,0.11,0.03c0.03,0,0.07-0.03,0.17-0.07c0.2-0.51,0.22-1.1,0.31-1.64
	c0,0-0.01,0-0.01-0.01l-0.06-0.07c-0.03,0.14-0.07,0.29-0.12,0.46c-0.06,0.27-0.13,0.49-0.13,0.53c-0.06,0.14,0.02,0.44-0.24,0.58
	l-0.06,0.02l-0.05-0.04c-0.78-0.64-1.13-1.5-1.8-2.2l-0.04-0.04l0.01-0.05c0.01-0.04,0.02-0.08,0.02-0.12c0-0.1-0.03-0.21-0.05-0.22
	c-0.03-0.02-0.03-0.02-0.03-0.02c0,0-0.06,0.03-0.1,0.12l-0.05,0.1l-0.1-0.07c-0.17-0.13-0.29-0.26-0.41-0.27
	c-0.04,0.02-0.06,0.03-0.07,0.05c0.06,0.06,0.06,0.1,0.08,0.11h0c0.22,0.01,0.37,0.21,0.47,0.34l0.03,0.04l-0.01,0.05
	c-0.23,0.84-0.44,1.76-0.47,2.64c0.01,0,0.01,0.01,0.02,0.01c0.01,0.01,0.05,0.03,0.07,0.06C135.26,48.56,135.28,48.57,135.31,48.57
	 M135.14,48.47L135.14,48.47L135.14,48.47z M138.45,45.77c-0.1,0.25-0.14,0.45-0.18,0.66l0.08-0.05c0.01,0,0.01,0,0.01-0.01
	c0-0.01,0-0.03,0.01-0.05v-0.02h-0.01l0.02-0.12c0.06-0.35,0.13-0.54,0.22-0.79c0.03-0.07,0.04-0.15,0.04-0.2
	c0-0.06-0.02-0.11-0.07-0.18c-0.01,0.01-0.03,0.01-0.05,0.01c-0.01,0-0.01,0-0.02-0.01c-0.01,0.01-0.02,0.01-0.03,0.01v0.02
	c0,0.03,0.01,0.07,0.04,0.1l0.07,0.09l-0.06,0.04c0,0.01,0,0.02,0,0.04c0,0,0,0.03-0.02,0.06v0.01c0,0.02,0,0.04-0.01,0.03
	c-0.01,0.08-0.06,0.29-0.08,0.33L138.45,45.77z M138.32,45.71v-0.03V45.71z"/>
<path class="st0" d="M143.12,47.95c-0.19,0.15-0.39,0.26-0.58,0.38c-0.08-0.01-0.14,0.03-0.19,0.07c-0.14,0.09-0.34,0.13-0.52,0.15
	c-0.27-0.03-0.63-0.11-0.78-0.49c-0.12-0.29-0.15-0.74-0.05-1.08c-0.04-0.06-0.1-0.04-0.15-0.09c-0.04-0.05-0.08-0.1-0.06-0.17
	c0.01-0.09,0.07-0.11,0.14-0.12c0.03-0.01,0.05-0.01,0.08-0.01c0.11-0.02,0.22-0.06,0.19-0.3c0.02-0.12,0.07-0.24,0.11-0.36
	c0.05-0.12,0.1-0.26,0.14-0.41c-0.13-0.02-0.26,0.01-0.4,0c-0.11-0.02-0.22-0.04-0.26-0.19c0.02-0.08,0.04-0.1,0.06-0.11
	c0.01-0.01,0.03-0.02,0.05-0.02c0.01-0.01,0.03-0.02,0.06-0.05c0.39-0.01,0.8-0.08,1.21-0.14c0.41-0.07,0.82-0.11,1.2-0.02
	c0.01,0.04,0.04,0.07,0.06,0.1c0.03,0.03,0.04,0.06,0.04,0.1c0.02,0.05,0.01,0.07-0.03,0.09c-0.03,0.01-0.07,0.03-0.07,0.08
	c-0.19-0.07-0.45-0.07-0.69-0.04c-0.27,0.03-0.54,0.1-0.77,0.1c-0.19,0.34-0.33,0.73-0.47,1.11c0.25,0.01,0.48-0.03,0.72-0.06
	c0.23-0.03,0.46-0.06,0.69-0.03c0.02,0.03,0.03,0.05,0.05,0.07c0.05,0.06,0.06,0.09,0.01,0.19c-0.07,0.08-0.1,0.1-0.13,0.11
	c-0.03,0.01-0.08,0.01-0.16,0.03c-0.01-0.03-0.04-0.03-0.06-0.02c-0.02,0.01-0.04,0.03-0.05,0.03c-0.47,0.02-0.74,0.08-1.2,0.09
	c-0.1,0.27-0.13,0.69-0.03,0.91c0.1,0.2,0.28,0.34,0.49,0.32c0.19-0.01,0.39-0.08,0.57-0.17c0.18-0.08,0.34-0.18,0.49-0.24
	c-0.01-0.04,0-0.05,0.01-0.05c0.01-0.01,0.02-0.01,0.03-0.02c0.02,0,0.03-0.01,0.05-0.01c0.07-0.08,0.14-0.12,0.21-0.17
	c0.08-0.04,0.16-0.08,0.26-0.15l0.01,0.01c0.01,0.02,0.01,0.05,0.02,0.07c0.01,0.02,0.02,0.03,0.04,0.02
	C143.41,47.68,143.28,47.82,143.12,47.95"/>
<path class="st0" d="M140.95,48.11c-0.08-0.19-0.12-0.43-0.12-0.67c0-0.14,0.01-0.28,0.05-0.41c-0.02-0.01-0.06-0.03-0.12-0.06
	c-0.04-0.04-0.09-0.11-0.09-0.21c0-0.01,0-0.03,0.01-0.05c0.01-0.14,0.15-0.21,0.21-0.2c0.04-0.01,0.07-0.01,0.08-0.01
	c0.09-0.03,0.1,0,0.11-0.14c0-0.01,0-0.03,0-0.07c0.02-0.14,0.08-0.26,0.12-0.38c0.03-0.08,0.08-0.18,0.11-0.28
	c-0.07,0-0.14,0.01-0.21,0.01c-0.02,0-0.04,0-0.07,0c-0.12-0.01-0.3-0.06-0.34-0.27l-0.01-0.02l0.01-0.03
	c0.02-0.08,0.06-0.14,0.11-0.17c0.01-0.01,0.03-0.02,0.02,0.01c0.04-0.05,0.06-0.05,0.06-0.05l0.03-0.03h0.04
	c0.38-0.01,0.79-0.08,1.2-0.14c0.25-0.04,0.49-0.07,0.74-0.07c0.17,0,0.34,0.01,0.51,0.06l0.05,0.01l0.02,0.05
	c0,0.02,0.02,0.04,0.04,0.06c0.04,0.03,0.07,0.1,0.06,0.13c0.01,0.02,0.02,0.04,0.02,0.07c0,0.09-0.07,0.12-0.1,0.14l-0.01,0v0.15
	l-0.14-0.06c-0.1-0.04-0.22-0.06-0.36-0.06c-0.09,0-0.19,0.01-0.29,0.03c-0.23,0.03-0.48,0.08-0.72,0.1
	c-0.15,0.28-0.27,0.59-0.39,0.91c0.19-0.01,0.38-0.04,0.57-0.06c0.16-0.02,0.32-0.03,0.49-0.04c0.07,0,0.15,0.01,0.23,0.01
	l0.03,0.01l0.03,0.03c0.03,0.03,0.04,0.05,0.06,0.07c0.03,0.03,0.06,0.09,0.06,0.15c0,0.05-0.02,0.09-0.05,0.17
	c-0.07,0.08-0.12,0.11-0.18,0.14c-0.05,0.01-0.08,0.01-0.15,0.03l-0.08,0.03l-0.01-0.02c-0.01,0-0.02,0-0.03,0.01
	c-0.43,0.02-0.7,0.07-1.13,0.09c-0.04,0.13-0.07,0.3-0.07,0.45c0,0.13,0.02,0.25,0.05,0.32c0.08,0.16,0.22,0.26,0.37,0.26
	c0.01,0,0.02,0,0.03,0c0.16-0.01,0.36-0.08,0.53-0.16c0.14-0.07,0.28-0.15,0.42-0.22c0-0.02,0.02-0.04,0.04-0.06
	c0.01-0.01,0.02-0.01,0.03-0.02c0.02-0.01,0.04-0.02,0.07-0.03c0,0,0,0,0.01,0c0.07-0.07,0.14-0.11,0.21-0.16
	c0.08-0.04,0.16-0.07,0.25-0.14l0.06-0.05l0.06,0.05l0.03,0.04l0.13-0.06l-0.06,0.21c-0.07,0.23-0.21,0.39-0.38,0.52l-0.06-0.08
	l0.06,0.08c-0.2,0.15-0.4,0.27-0.59,0.39l-0.03,0.01l-0.03,0l-0.01,0c-0.04,0-0.06,0.01-0.11,0.06c-0.16,0.11-0.39,0.15-0.59,0.17
	C141.54,48.63,141.13,48.54,140.95,48.11 M141.45,45.44l0.11,0.01l-0.02,0.11c-0.04,0.16-0.1,0.3-0.14,0.42
	c-0.04,0.12-0.09,0.24-0.11,0.32c0,0.02,0,0.04,0,0.06c0.01,0.23-0.17,0.33-0.3,0.34c-0.03,0-0.04,0-0.07,0.01
	c-0.07,0.02-0.03-0.01-0.05,0.05v0c0,0.02,0.01,0.04,0.03,0.06c0,0.02,0.09-0.01,0.18,0.11l0.03,0.04l-0.02,0.04
	c-0.04,0.13-0.06,0.27-0.06,0.42c0,0.21,0.04,0.43,0.11,0.59c0.13,0.32,0.43,0.39,0.68,0.42c0.17-0.01,0.37-0.06,0.47-0.13
	c0.05-0.04,0.13-0.1,0.23-0.1c0.19-0.12,0.38-0.23,0.55-0.36c0.12-0.1,0.21-0.2,0.28-0.31c-0.05,0.03-0.09,0.05-0.13,0.07
	c-0.07,0.05-0.13,0.08-0.18,0.15l-0.03,0.03h-0.01l0.01,0.02l-0.09,0.04c-0.14,0.06-0.31,0.16-0.48,0.25
	c-0.19,0.08-0.4,0.17-0.62,0.18h-0.03c-0.25,0-0.45-0.16-0.55-0.38c-0.05-0.12-0.07-0.26-0.08-0.41c0-0.2,0.04-0.41,0.1-0.58
	l0.03-0.06h0.06c0.44-0.01,0.71-0.06,1.18-0.09c0-0.01,0.01-0.01,0.01,0h0c0.02-0.02,0.06-0.04,0.09-0.04
	c0.02,0,0.04,0.01,0.06,0.01c0.06-0.01,0.09-0.01,0.08,0c0.03-0.02,0.03-0.02,0.09-0.06c0.02-0.04,0.02-0.06,0.02-0.06
	c0,0,0,0-0.02-0.03c-0.02-0.02-0.03-0.03-0.03-0.04c-0.05-0.01-0.1-0.01-0.16-0.01c-0.15,0-0.31,0.02-0.47,0.04
	c-0.21,0.03-0.43,0.06-0.67,0.06h-0.07h-0.14l0.05-0.13c0.14-0.38,0.28-0.77,0.47-1.12l0.03-0.05h0.06c0.22,0,0.49-0.07,0.76-0.1
	c0.11-0.02,0.22-0.02,0.32-0.02c0.12,0,0.23,0.01,0.34,0.04c0.02-0.03,0.05-0.04,0.05-0.04l0-0.01c0-0.03,0.01-0.01-0.02-0.04
	c-0.01-0.01-0.04-0.04-0.06-0.07c-0.13-0.03-0.26-0.04-0.41-0.04c-0.23,0-0.47,0.03-0.71,0.07c-0.39,0.06-0.8,0.13-1.18,0.14
	c-0.02,0.01-0.03,0.02-0.06,0.04c-0.01,0.01-0.02,0.01-0.02,0.01c-0.01,0.01-0.01,0-0.02,0.04c0.03,0.07,0.05,0.06,0.15,0.08
	c0.01,0,0.04,0,0.06,0c0.07,0,0.16-0.01,0.23-0.01C141.37,45.44,141.41,45.44,141.45,45.44"/>
<path class="st0" d="M22.92,24.56l-5.1,1.34l4.85-3.58l-3.92-4.32l4.99,2.3l0.24-4.97l1.6,4.51c4.6-7.15,11.9-14.23,23.4-19.69
	C19.75,14.03,5.86,23.74,0.48,17.17c-0.41-0.5,9.93,14.87,17.85,34.21C18.33,51.38,16.08,38.5,22.92,24.56"/>
<polygon class="st0" points="49.73,11.84 49.69,11.84 49.69,23.24 47.88,23.24 47.88,8.91 49.99,8.91 57.83,20.32 57.87,20.32 
	57.87,8.91 59.68,8.91 59.68,23.24 57.58,23.24 "/>
<path class="st0" d="M69.57,19.09c0,1.75-1.62,2.95-3.55,2.95c-1.25,0-2.09-0.68-2.09-1.66c0-1.11,0.7-1.53,2.03-1.73l1.93-0.28
	c0.96-0.14,1.42-0.28,1.68-0.62V19.09z M64.22,16.02c0.05-1.62,1.3-2.09,2.77-2.09c1.39,0,2.58,0.28,2.58,1.73
	c0,0.94-0.6,1.14-1.56,1.26l-1.95,0.24c-2.87,0.36-3.85,1.34-3.85,3.27c0,1.36,0.67,3.17,3.65,3.17c1.45,0,3.13-0.62,3.81-1.71
	c0.12,1.18,0.68,1.47,1.54,1.47c0.41,0,0.92-0.04,1.33-0.12v-1.41c-0.17,0.04-0.41,0.08-0.6,0.08c-0.53,0-0.77-0.28-0.77-0.9v-5.66
	c0-2.45-2.29-2.99-4.12-2.99c-2.68,0-4.22,1.03-4.45,3.65H64.22z"/>
<path class="st0" d="M74.73,12.73h1.71v1.59h0.04c0.8-1.47,2.22-1.95,3.51-1.95c2.15,0,3.76,1.08,3.76,3.71v7.17h-1.71v-6.76
	c0-1.55-0.82-2.43-2.65-2.43c-1.56,0-2.94,1.06-2.94,3.13v6.06h-1.71V12.73z"/>
<path class="st0" d="M87.27,9.5h1.71v3.23h2.57v1.56h-2.57v6.49c0,0.84,0.51,1.14,1.39,1.14c0.39,0,0.79-0.06,1.18-0.14v1.69
	c-0.58,0.12-1.21,0.14-1.91,0.14c-1.67,0-2.36-0.97-2.36-2.49v-6.82h-1.85v-1.56h1.85V9.5z"/>
<path class="st0" d="M107.15,19.93c0,0.94,0.65,2.11,2.82,2.11c2.2,0,2.74-0.9,2.74-1.64c0-0.74-0.33-1.18-1.7-1.41l-2.82-0.44
	c-1.28-0.2-2.43-1.16-2.43-2.79c0-2.13,1.57-3.4,4.08-3.4c2.94,0,4.23,1.49,4.38,3.53h-1.71c-0.05-1.06-0.91-1.97-2.68-1.97
	c-1.1,0-2.36,0.36-2.36,1.61c0,0.71,0.27,1.11,1.49,1.31l2.43,0.38c2.26,0.36,3.13,1.31,3.13,2.79c0,2.45-1.76,3.6-4.49,3.6
	c-2.06,0-4.4-0.63-4.58-3.68H107.15z"/>
<path class="st0" d="M103.18,18.33c0-4.36-2.5-5.96-4.86-5.96c-3.48,0-5.2,2.59-5.2,5.62s1.71,5.62,5.2,5.62
	c1.76,0,3.76-1.02,4.62-3.55h-1.81c-0.58,1.49-1.92,1.87-2.89,1.87c-1.04,0-2.14-0.55-2.77-1.59c-0.37-0.55-0.61-1.39-0.61-2.34
	c0-0.77,0.16-1.47,0.42-2.01c0.54-1.24,1.7-1.93,2.96-1.93c1.6,0,2.87,1.06,3.13,2.97H96.3l-0.84,1.57h7.73V18.33z"/>
<polygon class="st0" points="60.27,26.19 62.79,26.19 62.79,40.52 60.97,40.52 60.97,28.64 60.94,28.64 56.19,40.52 54.58,40.52 
	49.84,28.88 49.81,28.88 49.81,40.52 48,40.52 48,26.19 50.55,26.19 55.38,38.08 "/>
<path class="st0" d="M79.35,26.77h1.71V30h2.57v1.56h-2.57v6.48c0,0.85,0.51,1.15,1.38,1.15c0.39,0,0.79-0.06,1.18-0.14v1.69
	c-0.58,0.12-1.21,0.14-1.91,0.14c-1.68,0-2.36-0.97-2.36-2.49v-6.83h-1.85V30h1.85V26.77z"/>
<path class="st0" d="M86.3,30H88v1.93h0.04c0.8-1.67,1.95-2.29,3.08-2.29c0.43,0,0.65,0.02,0.98,0.13v2.17
	c-0.43-0.12-0.76-0.2-1.22-0.2c-1.69,0-2.88,1.16-2.88,3.45v5.34H86.3V30z"/>
<path class="st0" d="M102.13,35.26c0,1.91-0.9,3.93-3.38,3.93c-2.48,0-3.39-2.02-3.39-3.93c0-1.9,0.91-3.94,3.39-3.94
	C101.22,31.33,102.13,33.36,102.13,35.26 M93.54,35.26c0,3.03,1.71,5.62,5.2,5.62c3.49,0,5.2-2.59,5.2-5.62
	c0-3.03-1.71-5.62-5.2-5.62C95.25,29.64,93.54,32.23,93.54,35.26"/>
<path class="st0" d="M114.87,35.32c0,2.41-1.3,3.87-3.29,3.87c-1.99,0-3.32-1.46-3.32-3.87c0-1.99,0.99-3.87,3.32-3.87
	C113.89,31.45,114.87,33.33,114.87,35.32 M106.66,44.58h1.71v-5.4h0.04c0.68,1.15,2.07,1.71,3.4,1.71c2.7,0,4.87-2.03,4.87-5.56
	c0-3.53-2.17-5.56-4.87-5.56c-1.31,0-2.73,0.6-3.4,1.7h-0.04V30h-1.71V44.58z"/>
<path class="st0" d="M127.59,35.26c0,1.91-0.9,3.93-3.38,3.93c-2.48,0-3.39-2.02-3.39-3.93c0-1.9,0.91-3.94,3.39-3.94
	C126.68,31.33,127.59,33.36,127.59,35.26 M119.01,35.26c0,3.03,1.71,5.62,5.2,5.62c3.48,0,5.2-2.59,5.2-5.62
	c0-3.03-1.71-5.62-5.2-5.62C120.71,29.64,119.01,32.23,119.01,35.26"/>
<rect x="132.12" y="26.07" class="st0" width="1.71" height="14.45"/>
<polygon class="st1" points="67.28,27.38 67.31,28.21 74.11,28.21 74.11,26.69 "/>
<path class="st0" d="M146.5,35.6c0-4.36-2.5-5.96-4.86-5.96c-3.49,0-5.2,2.59-5.2,5.62c0,3.03,1.71,5.62,5.2,5.62
	c1.76,0,3.77-1.02,4.62-3.55h-1.81c-0.58,1.48-1.92,1.86-2.89,1.86c-1.04,0-2.14-0.54-2.77-1.59c-0.37-0.55-0.6-1.39-0.6-2.34
	c0-0.78,0.16-1.47,0.42-2.01c0.54-1.24,1.7-1.93,2.96-1.93c1.6,0,2.87,1.06,3.13,2.97h-5.07l-0.84,1.57h7.73V35.6z"/>
<path class="st0" d="M75.99,35.6c0-4.36-2.5-5.96-4.86-5.96c-3.49,0-5.2,2.59-5.2,5.62c0,3.03,1.71,5.62,5.2,5.62
	c1.76,0,3.76-1.02,4.62-3.55h-1.81c-0.58,1.48-1.92,1.86-2.89,1.86c-1.04,0-2.14-0.54-2.77-1.59c-0.37-0.55-0.61-1.39-0.61-2.34
	c0-0.78,0.16-1.47,0.42-2.01c0.55-1.24,1.7-1.93,2.96-1.93c1.6,0,2.87,1.06,3.13,2.97h-5.08l-0.84,1.57h7.73V35.6z"/>
<path class="st0" d="M38.85,12.44l0.38-0.38c-4.4,2.35-8.12,5.62-10.97,9.67l6.75,1.1l-8.08,0.96c-0.02,0.02-0.03,0.04-0.04,0.06
	c-0.05,0.1-0.11,0.19-0.17,0.29l3.36,8.87l-4.47-6.87c-1.78,3.35-3.33,7.06-4.28,10.6c-0.26,0.98-0.71,2.69,0.37,3.35
	c1.26,0.77,3.46-0.53,4.53-1.1c5.67-2.97,12.3-7.93,14.17-14.34C41.67,20.35,39.82,16.56,38.85,12.44"/>
</svg>
